<?xml version="1.0" encoding="UTF-8"?>
<!DOCTYPE svg PUBLIC "-//W3C//DTD SVG 1.1//EN" "http://www.w3.org/Graphics/SVG/1.1/DTD/svg11.dtd">
<!-- Creator: CorelDRAW 2019 (64 Bit) -->
<svg xmlns="http://www.w3.org/2000/svg" xml:space="preserve" width="43.3492mm" height="43.3492mm" version="1.1" style="shape-rendering:geometricPrecision; text-rendering:geometricPrecision; image-rendering:optimizeQuality; fill-rule:evenodd; clip-rule:evenodd"
viewBox="0 0 4334.92 4334.92"
 xmlns:xlink="http://www.w3.org/1999/xlink">
 <defs>
  <style type="text/css">
   <![CDATA[
    .str0 {stroke:#00A859;stroke-width:7.62;stroke-miterlimit:22.9256}
    .fil0 {fill:#00A859}
    .fil1 {fill:#19681D}
    .fil2 {fill:#EDEDED}
    .fil3 {fill:#373435;fill-opacity:0.090196}
   ]]>
  </style>
    <clipPath id="id0">
     <rect x="-5.37" y="-19.83" width="4367.72" height="4444.44"/>
    </clipPath>
    <clipPath id="id1">
     <path d="M-5.37 4424.61l4367.71 0 0 -4444.43 -4367.71 0 0 4444.43z"/>
    </clipPath>
    <clipPath id="id2">
     <rect x="-5.37" y="-19.83" width="4367.72" height="4444.44"/>
    </clipPath>
 </defs>
 <g id="Camada_x0020_1">
  <metadata id="CorelCorpID_0Corel-Layer"/>
  <g id="_2005733796576">
   <g style="clip-path:url(#id0)">
   </g>
   <g style="clip-path:url(#id1)">
    <image x="-5.37" y="-19.82" width="4367.71" height="4444.43" xlink:href="logo-expenses_Images\logo-expenses_ImgID1.png"/>
   </g>
   <g style="clip-path:url(#id2)">
   </g>
   <g>
    <polygon class="fil0" points="3896.22,2952.11 3896.22,2956.99 3881.58,2956.99 3881.58,2971.63 3847.41,2971.63 3847.41,2986.27 3832.77,2986.27 3832.77,3000.91 3783.96,3000.91 3783.96,3015.56 3754.68,3015.56 3754.68,3020.44 3735.15,3020.44 3735.15,3030.2 3720.51,3030.2 3720.51,3035.08 3657.06,3035.08 3657.06,3049.72 3593.61,3049.72 3593.61,3064.37 3578.96,3064.37 3578.96,3225.43 3564.32,3225.43 3564.32,3303.53 3544.8,3303.53 3544.8,3269.36 3559.44,3269.36 3559.44,3191.27 3564.32,3191.27 3564.32,3127.82 3574.08,3127.82 3574.08,3113.17 3564.32,3113.17 3564.32,3079.01 3544.8,3079.01 3544.8,3064.37 3530.16,3064.37 3530.16,3049.72 3515.51,3049.72 3515.51,3035.08 3495.99,3035.08 3495.99,3020.44 3481.35,3020.44 3481.35,3000.91 3466.7,3000.91 3466.7,2986.27 3447.18,2986.27 3447.18,2971.63 3432.54,2971.63 3432.54,2956.99 3417.9,2956.99 3417.9,2937.46 3403.25,2937.46 3403.25,2922.82 3383.73,2922.82 3383.73,2908.18 3369.09,2908.18 3369.09,2893.54 3354.44,2893.54 3354.44,2874.01 3339.8,2874.01 3339.8,2859.37 3325.16,2859.37 3325.16,2844.73 3305.64,2844.73 3305.64,2825.2 3290.99,2825.2 3290.99,2810.56 3276.35,2810.56 3276.35,2795.92 3261.71,2795.92 3261.71,2781.28 3256.83,2781.28 3256.83,2776.39 3242.18,2776.39 3242.18,2761.75 3227.54,2761.75 3227.54,2747.11 3212.9,2747.11 3212.9,2732.47 3208.02,2732.47 3208.02,2727.59 3198.26,2727.59 3198.26,2717.82 3193.37,2717.82 3193.37,2712.94 3178.73,2712.94 3178.73,2698.3 3164.09,2698.3 3164.09,2683.66 3149.45,2683.66 3149.45,2669.01 3129.92,2669.01 3129.92,2654.37 3115.28,2654.37 3115.28,2634.85 3100.64,2634.85 3100.64,2620.21 3081.11,2620.21 3081.11,2605.56 3066.47,2605.56 3066.47,2590.92 3051.83,2590.92 3051.83,2571.4 3037.19,2571.4 3037.19,2556.76 3022.54,2556.76 3022.54,2542.11 3003.02,2542.11 3003.02,2522.59 2988.38,2522.59 2988.38,2507.95 2973.74,2507.95 2973.74,2493.3 2954.21,2493.3 2954.21,2478.66 2939.57,2478.66 2939.57,2459.14 2924.93,2459.14 2924.93,2444.5 2890.76,2444.5 2890.76,2429.85 2876.12,2429.85 2876.12,2410.33 2861.48,2410.33 2861.48,2395.69 2841.95,2395.69 2841.95,2381.04 2827.31,2381.04 2827.31,2366.4 2798.02,2366.4 2798.02,2351.76 2783.38,2351.76 2783.38,2332.24 2749.22,2332.24 2749.22,2317.59 2734.57,2317.59 2734.57,2302.95 2719.93,2302.95 2719.93,2298.07 2715.05,2298.07 2715.05,2288.31 2700.41,2288.31 2700.41,2283.43 2685.76,2283.43 2685.76,2268.78 2656.48,2268.78 2656.48,2254.14 2622.31,2254.14 2622.31,2239.5 2607.67,2239.5 2607.67,2234.62 2588.15,2234.62 2588.15,2224.86 2573.5,2224.86 2573.5,2219.98 2510.05,2219.98 2510.05,2205.33 2495.41,2205.33 2495.41,2219.98 2446.6,2219.98 2446.6,2224.86 2431.96,2224.86 2431.96,2239.5 2417.32,2239.5 2417.32,2254.14 2397.79,2254.14 2397.79,2268.78 2383.15,2268.78 2383.15,2288.31 2368.51,2288.31 2368.51,2366.4 2334.34,2366.4 2334.34,2381.04 2319.7,2381.04 2319.7,2410.33 2305.06,2410.33 2305.06,2478.66 2290.41,2478.66 2290.41,2493.3 2285.53,2493.3 2285.53,3113.17 2270.89,3113.17 2270.89,3303.53 2256.25,3303.53 2256.25,3415.79 2241.6,3415.79 2241.6,3493.88 2222.08,3493.88 2222.08,3557.33 2207.44,3557.33 2207.44,3620.79 2192.8,3620.79 2192.8,3669.59 2178.15,3669.59 2178.15,3718.4 2163.51,3718.4 2163.51,3733.05 2158.63,3733.05 2158.63,3752.57 2143.99,3752.57 2143.99,3781.85 2129.34,3781.85 2129.34,3830.66 2114.7,3830.66 2114.7,3859.95 2095.18,3859.95 2095.18,3879.47 2080.54,3879.47 2080.54,3908.76 2065.89,3908.76 2065.89,3938.04 2046.37,3938.04 2046.37,3957.56 2031.73,3957.56 2031.73,3986.85 2017.09,3986.85 2017.09,4006.37 2002.44,4006.37 2002.44,4035.66 1904.83,4035.66 1904.83,4021.02 1875.54,4021.02 1875.54,4006.37 1841.37,4006.37 1841.37,3986.85 1812.09,3986.85 1812.09,3972.21 1792.56,3972.21 1792.56,3957.56 1777.92,3957.56 1777.92,3942.92 1763.28,3942.92 1763.28,3923.4 1748.64,3923.4 1748.64,3908.76 1763.28,3908.76 1763.28,3894.11 1792.56,3894.11 1792.56,3874.59 1826.73,3874.59 1826.73,3859.95 1841.37,3859.95 1841.37,3845.31 1875.54,3845.31 1875.54,3830.66 1890.18,3830.66 1890.18,3816.02 1904.83,3816.02 1904.83,3796.5 1924.35,3796.5 1924.35,3781.85 1938.99,3781.85 1938.99,3767.21 1953.63,3767.21 1953.63,3747.69 1968.28,3747.69 1968.28,3733.05 1987.8,3733.05 1987.8,3718.4 2002.44,3718.4 2002.44,3698.88 2017.09,3698.88 2017.09,3669.59 2031.73,3669.59 2031.73,3654.95 2046.37,3654.95 2046.37,3620.79 2065.89,3620.79 2065.89,3606.14 2080.54,3606.14 2080.54,3576.86 2095.18,3576.86 2095.18,3557.33 2100.06,3557.33 2100.06,3542.69 2114.7,3542.69 2114.7,3513.41 2129.34,3513.41 2129.34,3464.6 2143.99,3464.6 2143.99,3415.79 2158.63,3415.79 2158.63,3381.62 2163.51,3381.62 2163.51,3366.98 2173.27,3366.98 2173.27,3352.34 2178.15,3352.34 2178.15,3303.53 2192.8,3303.53 2192.8,3240.08 2207.44,3240.08 2207.44,3142.46 2226.96,3142.46 2226.96,3015.56 2241.6,3015.56 2241.6,2507.95 2226.96,2507.95 2226.96,2410.33 2222.08,2410.33 2222.08,2395.69 2207.44,2395.69 2207.44,2366.4 2192.8,2366.4 2192.8,2332.24 2178.15,2332.24 2178.15,2317.59 2158.63,2317.59 2158.63,2288.31 2143.99,2288.31 2143.99,2268.78 2114.7,2268.78 2114.7,2239.5 2100.06,2239.5 2100.06,2234.62 2065.89,2234.62 2065.89,2219.98 1938.99,2219.98 1938.99,2234.62 1924.35,2234.62 1924.35,2239.5 1890.18,2239.5 1890.18,2254.14 1856.02,2254.14 1856.02,2268.78 1812.09,2268.78 1812.09,2283.43 1777.92,2283.43 1777.92,2298.07 1763.28,2298.07 1763.28,2317.59 1729.11,2317.59 1729.11,2332.24 1699.83,2332.24 1699.83,2351.76 1685.19,2351.76 1685.19,2366.4 1651.02,2366.4 1651.02,2381.04 1636.38,2381.04 1636.38,2395.69 1616.85,2395.69 1616.85,2400.57 1607.09,2400.57 1607.09,2410.33 1587.57,2410.33 1587.57,2429.85 1558.28,2429.85 1558.28,2444.5 1538.76,2444.5 1538.76,2459.14 1524.12,2459.14 1524.12,2473.78 1494.83,2473.78 1494.83,2478.66 1489.95,2478.66 1489.95,2493.3 1475.31,2493.3 1475.31,2507.95 1460.67,2507.95 1460.67,2522.59 1441.14,2522.59 1441.14,2537.23 1426.5,2537.23 1426.5,2542.11 1411.86,2542.11 1411.86,2556.76 1397.21,2556.76 1397.21,2571.4 1382.57,2571.4 1382.57,2586.04 1363.05,2586.04 1363.05,2600.68 1348.41,2600.68 1348.41,2620.21 1319.12,2620.21 1319.12,2634.85 1299.6,2634.85 1299.6,2654.37 1284.95,2654.37 1284.95,2669.01 1270.31,2669.01 1270.31,2683.66 1255.67,2683.66 1255.67,2698.3 1236.14,2698.3 1236.14,2717.82 1221.5,2717.82 1221.5,2732.47 1206.86,2732.47 1206.86,2747.11 1187.34,2747.11 1187.34,2776.39 1172.69,2776.39 1172.69,2795.92 1158.05,2795.92 1158.05,2810.56 1143.41,2810.56 1143.41,2825.2 1138.53,2825.2 1138.53,2830.08 1128.77,2830.08 1128.77,2839.85 1123.88,2839.85 1123.88,2859.37 1109.24,2859.37 1109.24,2874.01 1094.6,2874.01 1094.6,2888.65 1075.08,2888.65 1075.08,2903.3 1065.31,2903.3 1065.31,2908.18 1060.43,2908.18 1060.43,2922.82 1045.79,2922.82 1045.79,2937.46 1031.15,2937.46 1031.15,2956.99 1016.51,2956.99 1016.51,2971.63 996.98,2971.63 996.98,2986.27 982.34,2986.27 982.34,3000.91 967.7,3000.91 967.7,3020.44 948.17,3020.44 948.17,3035.08 933.53,3035.08 933.53,3049.72 918.89,3049.72 918.89,3064.37 904.25,3064.37 904.25,3079.01 889.6,3079.01 889.6,3083.89 884.72,3083.89 884.72,3098.53 870.08,3098.53 870.08,3015.56 855.44,3015.56 855.44,3000.91 821.27,3000.91 821.27,2986.27 743.18,2986.27 743.18,2971.63 694.37,2971.63 694.37,2966.75 679.72,2966.75 679.72,2952.11 650.44,2952.11 650.44,2937.46 601.63,2937.46 601.63,2922.82 567.46,2922.82 567.46,2903.3 572.35,2903.3 572.35,2908.18 601.63,2908.18 601.63,2888.65 586.99,2888.65 586.99,2874.01 552.82,2874.01 552.82,2859.37 538.18,2859.37 538.18,2844.73 518.66,2844.73 518.66,2825.2 504.01,2825.2 504.01,2810.56 489.37,2810.56 489.37,2795.92 474.73,2795.92 474.73,2761.75 455.2,2761.75 455.2,2747.11 440.56,2747.11 440.56,2712.94 425.92,2712.94 425.92,2669.01 411.28,2669.01 411.28,2586.04 396.63,2586.04 396.63,2429.85 406.4,2429.85 406.4,2415.21 411.28,2415.21 411.28,2366.4 425.92,2366.4 425.92,2317.59 440.56,2317.59 440.56,2283.43 455.2,2283.43 455.2,2268.78 469.85,2268.78 469.85,2254.14 474.73,2254.14 474.73,2239.5 489.37,2239.5 489.37,2219.98 504.01,2219.98 504.01,2205.33 518.66,2205.33 518.66,2190.69 538.18,2190.69 538.18,2176.05 552.82,2176.05 552.82,2171.17 567.46,2171.17 567.46,2156.52 586.99,2156.52 586.99,2141.88 616.27,2141.88 616.27,2127.24 650.44,2127.24 650.44,2112.6 694.37,2112.6 694.37,2093.07 757.82,2093.07 757.82,2078.43 870.08,2078.43 870.08,2063.79 1221.5,2063.79 1221.5,2078.43 1348.41,2078.43 1348.41,2093.07 1446.02,2093.07 1446.02,2107.72 1509.47,2107.72 1509.47,2112.6 1538.76,2112.6 1538.76,2122.36 1572.93,2122.36 1572.93,2127.24 1699.83,2127.24 1699.83,2141.88 1714.47,2141.88 1714.47,2127.24 1826.73,2127.24 1826.73,2112.6 1841.37,2112.6 1841.37,2107.72 1856.02,2107.72 1856.02,2097.95 1860.9,2097.95 1860.9,2093.07 1890.18,2093.07 1890.18,2078.43 1904.83,2078.43 1904.83,2058.91 1919.47,2058.91 1919.47,2049.15 1924.35,2049.15 1924.35,2029.62 1938.99,2029.62 1938.99,2014.98 1953.63,2014.98 1953.63,1966.17 1968.28,1966.17 1968.28,1951.53 1973.16,1951.53 1973.16,1922.24 1982.92,1922.24 1982.92,1902.72 1973.16,1902.72 1973.16,1853.91 1968.28,1853.91 1968.28,1809.98 1953.63,1809.98 1953.63,1746.53 1938.99,1746.53 1938.99,1697.72 1924.35,1697.72 1924.35,1663.56 1904.83,1663.56 1904.83,1614.75 1890.18,1614.75 1890.18,1585.46 1875.54,1585.46 1875.54,1551.3 1860.9,1551.3 1860.9,1522.01 1841.37,1522.01 1841.37,1487.84 1826.73,1487.84 1826.73,1458.56 1812.09,1458.56 1812.09,1443.92 1807.21,1443.92 1807.21,1424.39 1797.44,1424.39 1797.44,1409.75 1792.56,1409.75 1792.56,1395.11 1777.92,1395.11 1777.92,1360.94 1763.28,1360.94 1763.28,1346.3 1748.64,1346.3 1748.64,1331.66 1743.76,1331.66 1743.76,1317.01 1733.99,1317.01 1733.99,1312.13 1729.11,1312.13 1729.11,1282.85 1714.47,1282.85 1714.47,1268.21 1699.83,1268.21 1699.83,1234.04 1685.19,1234.04 1685.19,1219.4 1680.3,1219.4 1680.3,1204.75 1651.02,1204.75 1651.02,1170.59 1636.38,1170.59 1636.38,1155.95 1621.73,1155.95 1621.73,1141.3 1616.85,1141.3 1616.85,1136.42 1602.21,1136.42 1602.21,1107.14 1587.57,1107.14 1587.57,1092.49 1572.93,1092.49 1572.93,1077.85 1558.28,1077.85 1558.28,1072.97 1553.4,1072.97 1553.4,1058.33 1538.76,1058.33 1538.76,1043.69 1524.12,1043.69 1524.12,1029.04 1509.47,1029.04 1509.47,1009.52 1494.83,1009.52 1494.83,994.88 1475.31,994.88 1475.31,980.23 1460.67,980.23 1460.67,965.59 1446.02,965.59 1446.02,946.07 1431.38,946.07 1431.38,931.43 1411.86,931.43 1411.86,916.78 1397.21,916.78 1397.21,902.14 1382.57,902.14 1382.57,897.26 1377.69,897.26 1377.69,887.5 1363.05,887.5 1363.05,882.62 1348.41,882.62 1348.41,867.97 1333.76,867.97 1333.76,853.33 1314.24,853.33 1314.24,838.69 1299.6,838.69 1299.6,824.05 1284.95,824.05 1284.95,819.17 1270.31,819.17 1270.31,804.52 1250.79,804.52 1250.79,789.88 1221.5,789.88 1221.5,775.24 1206.86,775.24 1206.86,755.71 1172.69,755.71 1172.69,741.07 1143.41,741.07 1143.41,726.43 1123.88,726.43 1123.88,711.79 1094.6,711.79 1094.6,677.62 1109.24,677.62 1109.24,614.17 1128.77,614.17 1128.77,580 1143.41,580 1143.41,550.72 1158.05,550.72 1158.05,516.55 1172.69,516.55 1172.69,487.27 1187.34,487.27 1187.34,467.74 1201.98,467.74 1201.98,453.1 1206.86,453.1 1206.86,438.46 1221.5,438.46 1221.5,423.81 1236.14,423.81 1236.14,404.29 1250.79,404.29 1250.79,389.65 1270.31,389.65 1270.31,375.01 1284.95,375.01 1284.95,360.36 1299.6,360.36 1299.6,355.48 1314.24,355.48 1314.24,340.84 1333.76,340.84 1333.76,326.2 1348.41,326.2 1348.41,311.55 1382.57,311.55 1382.57,296.91 1411.86,296.91 1411.86,277.39 1460.67,277.39 1460.67,262.75 1524.12,262.75 1524.12,248.1 1665.66,248.1 1665.66,262.75 1729.11,262.75 1729.11,277.39 1763.28,277.39 1763.28,296.91 1797.44,296.91 1797.44,311.55 1826.73,311.55 1826.73,326.2 1846.25,326.2 1846.25,340.84 1860.9,340.84 1860.9,355.48 1875.54,355.48 1875.54,375.01 1890.18,375.01 1890.18,389.65 1904.83,389.65 1904.83,404.29 1919.47,404.29 1919.47,409.17 1924.35,409.17 1924.35,423.81 1938.99,423.81 1938.99,438.46 1953.63,438.46 1953.63,472.62 1968.28,472.62 1968.28,487.27 1973.16,487.27 1973.16,501.91 1982.92,501.91 1982.92,516.55 1987.8,516.55 1987.8,536.07 2002.44,536.07 2002.44,580 2017.09,580 2017.09,628.81 2031.73,628.81 2031.73,706.9 2036.61,706.9 2036.61,711.79 2046.37,711.79 2046.37,741.07 2051.25,741.07 2051.25,867.97 2065.89,867.97 2065.89,1487.84 2095.18,1487.84 2095.18,1312.13 2100.06,1312.13 2100.06,1282.85 2109.82,1282.85 2109.82,1092.49 2129.34,1092.49 2129.34,1185.23 2114.7,1185.23 2114.7,1331.66 2109.82,1331.66 2109.82,1375.59 2100.06,1375.59 2100.06,1614.75 2114.7,1614.75 2114.7,1663.56 2129.34,1663.56 2129.34,1697.72 2158.63,1697.72 2158.63,1712.36 2178.15,1712.36 2178.15,1727.01 2305.06,1727.01 2305.06,1712.36 2334.34,1712.36 2334.34,1697.72 2353.86,1697.72 2353.86,1683.08 2368.51,1683.08 2368.51,1663.56 2383.15,1663.56 2383.15,1634.27 2397.79,1634.27 2397.79,1585.46 2412.44,1585.46 2412.44,1234.04 2402.67,1234.04 2402.67,1185.23 2397.79,1185.23 2397.79,994.88 2383.15,994.88 2383.15,980.23 2397.79,980.23 2397.79,965.59 2383.15,965.59 2383.15,838.69 2397.79,838.69 2397.79,662.98 2412.44,662.98 2412.44,599.53 2431.96,599.53 2431.96,628.81 2417.32,628.81 2417.32,711.79 2412.44,711.79 2412.44,726.43 2402.67,726.43 2402.67,1136.42 2412.44,1136.42 2412.44,1185.23 2417.32,1185.23 2417.32,1395.11 2431.96,1395.11 2431.96,1507.37 2446.6,1507.37 2446.6,1395.11 2461.24,1395.11 2461.24,789.88 2480.77,789.88 2480.77,706.9 2495.41,706.9 2495.41,643.45 2510.05,643.45 2510.05,580 2524.69,580 2524.69,550.72 2544.22,550.72 2544.22,501.91 2558.86,501.91 2558.86,487.27 2573.5,487.27 2573.5,453.1 2588.15,453.1 2588.15,438.46 2593.03,438.46 2593.03,423.81 2607.67,423.81 2607.67,404.29 2622.31,404.29 2622.31,389.65 2636.95,389.65 2636.95,375.01 2656.48,375.01 2656.48,360.36 2671.12,360.36 2671.12,340.84 2685.76,340.84 2685.76,326.2 2715.05,326.2 2715.05,311.55 2734.57,311.55 2734.57,296.91 2763.86,296.91 2763.86,277.39 2812.67,277.39 2812.67,262.75 2861.48,262.75 2861.48,248.1 3022.54,248.1 3022.54,262.75 3086,262.75 3086,277.39 3100.64,277.39 3100.64,282.27 3115.28,282.27 3115.28,296.91 3149.45,296.91 3149.45,311.55 3178.73,311.55 3178.73,326.2 3212.9,326.2 3212.9,345.72 3227.54,345.72 3227.54,355.48 3242.18,355.48 3242.18,375.01 3261.71,375.01 3261.71,389.65 3276.35,389.65 3276.35,404.29 3290.99,404.29 3290.99,423.81 3305.64,423.81 3305.64,438.46 3325.16,438.46 3325.16,453.1 3339.8,453.1 3339.8,487.27 3354.44,487.27 3354.44,501.91 3369.09,501.91 3369.09,531.19 3373.97,531.19 3373.97,536.07 3383.73,536.07 3383.73,565.36 3403.25,565.36 3403.25,614.17 3417.9,614.17 3417.9,662.98 3432.54,662.98 3432.54,726.43 3417.9,726.43 3417.9,741.07 3388.61,741.07 3388.61,755.71 3354.44,755.71 3354.44,770.36 3339.8,770.36 3339.8,789.88 3310.52,789.88 3310.52,804.52 3290.99,804.52 3290.99,819.17 3261.71,819.17 3261.71,838.69 3242.18,838.69 3242.18,853.33 3212.9,853.33 3212.9,867.97 3193.37,867.97 3193.37,882.62 3178.73,882.62 3178.73,902.14 3149.45,902.14 3149.45,916.78 3129.92,916.78 3129.92,931.43 3115.28,931.43 3115.28,946.07 3100.64,946.07 3100.64,965.59 3086,965.59 3086,980.23 3051.83,980.23 3051.83,994.88 3037.19,994.88 3037.19,1014.4 3022.54,1014.4 3022.54,1029.04 3003.02,1029.04 3003.02,1043.69 2988.38,1043.69 2988.38,1058.33 2973.74,1058.33 2973.74,1072.97 2959.09,1072.97 2959.09,1092.49 2944.45,1092.49 2944.45,1107.14 2924.93,1107.14 2924.93,1126.66 2910.28,1126.66 2910.28,1141.3 2895.64,1141.3 2895.64,1155.95 2876.12,1155.95 2876.12,1170.59 2861.48,1170.59 2861.48,1204.75 2846.83,1204.75 2846.83,1219.4 2827.31,1219.4 2827.31,1234.04 2812.67,1234.04 2812.67,1253.56 2798.02,1253.56 2798.02,1268.21 2783.38,1268.21 2783.38,1297.49 2768.74,1297.49 2768.74,1312.13 2749.22,1312.13 2749.22,1331.66 2734.57,1331.66 2734.57,1360.94 2719.93,1360.94 2719.93,1375.59 2715.05,1375.59 2715.05,1380.46 2705.29,1380.46 2705.29,1395.11 2700.41,1395.11 2700.41,1409.75 2685.76,1409.75 2685.76,1424.39 2671.12,1424.39 2671.12,1458.56 2651.6,1458.56 2651.6,1473.2 2636.95,1473.2 2636.95,1487.84 2622.31,1487.84 2622.31,1536.65 2607.67,1536.65 2607.67,1570.82 2593.03,1570.82 2593.03,1585.46 2573.5,1585.46 2573.5,1634.27 2558.86,1634.27 2558.86,1663.56 2544.22,1663.56 2544.22,1697.72 2524.69,1697.72 2524.69,1746.53 2510.05,1746.53 2510.05,1980.81 2524.69,1980.81 2524.69,2029.62 2544.22,2029.62 2544.22,2044.26 2558.86,2044.26 2558.86,2078.43 2573.5,2078.43 2573.5,2093.07 2607.67,2093.07 2607.67,2112.6 2622.31,2112.6 2622.31,2127.24 2671.12,2127.24 2671.12,2141.88 2734.57,2141.88 2734.57,2156.52 2846.83,2156.52 2846.83,2171.17 3051.83,2171.17 3051.83,2161.41 3115.28,2161.41 3115.28,2156.52 3212.9,2156.52 3212.9,2141.88 3325.16,2141.88 3325.16,2127.24 3432.54,2127.24 3432.54,2112.6 3608.25,2112.6 3608.25,2127.24 3691.22,2127.24 3691.22,2141.88 3754.68,2141.88 3754.68,2156.52 3783.96,2156.52 3783.96,2171.17 3818.13,2171.17 3818.13,2190.69 3847.41,2190.69 3847.41,2205.33 3881.58,2205.33 3881.58,2219.98 3896.22,2219.98 3896.22,2239.5 3910.86,2239.5 3910.86,2254.14 3945.03,2254.14 3945.03,2283.43 3959.67,2283.43 3959.67,2298.07 3974.32,2298.07 3974.32,2302.95 3979.2,2302.95 3979.2,2317.59 3988.96,2317.59 3988.96,2332.24 4008.48,2332.24 4008.48,2366.4 4023.12,2366.4 4023.12,2410.33 4037.77,2410.33 4037.77,2444.5 4042.65,2444.5 4042.65,2459.14 4052.41,2459.14 4052.41,2654.37 4042.65,2654.37 4042.65,2683.66 4037.77,2683.66 4037.77,2712.94 4023.12,2712.94 4023.12,2747.11 4008.48,2747.11 4008.48,2795.92 3993.84,2795.92 3993.84,2825.2 3974.32,2825.2 3974.32,2844.73 3959.67,2844.73 3959.67,2859.37 3945.03,2859.37 3945.03,2874.01 3930.39,2874.01 3930.39,2888.65 3925.51,2888.65 3925.51,2893.54 3915.74,2893.54 3915.74,2903.3 3910.86,2903.3 3910.86,2908.18 3896.22,2908.18 3896.22,2922.82 3881.58,2922.82 3881.58,2937.46 3866.94,2937.46 3866.94,2952.11 "/>
    <path class="fil1" d="M1314.24 262.75l-29.29 0 0 14.64 -14.64 0 0 19.52 -14.64 0 0 14.64 -4.88 0 0 14.65 -14.65 0 0 14.64 -14.64 0 0 19.52 -14.64 0 0 14.65 -14.64 0 0 14.64 -19.53 0 0 34.16 -14.64 0 0 29.29 -14.64 0 0 19.52 -14.64 0 0 14.65 -4.89 0 0 29.28 -14.64 0 0 48.81 -14.64 0 0 63.45 -14.64 0 0 82.98 -112.26 0 0 9.76 -48.81 0 0 4.88 -63.45 0 0 14.64 -48.81 0 0 14.64 -34.17 0 0 4.89 -14.64 0 0 9.76 -14.64 0 0 4.88 -14.65 0 0 14.64 -34.16 0 0 14.64 -14.65 0 0 14.65 -14.64 0 0 4.88 -14.64 0 0 14.64 -14.64 0 0 14.64 -19.53 0 0 14.64 -14.64 0 0 19.53 -14.64 0 0 14.64 -14.64 0 0 14.64 -19.53 0 0 29.29 -14.64 0 0 34.16 -19.52 0 0 14.65 -14.65 0 0 63.45 -14.64 0 0 48.81 -14.64 0 0 175.71 14.64 0 0 63.45 14.64 0 0 48.81 14.65 0 0 29.28 19.52 0 0 34.17 14.64 0 0 29.28 14.64 0 0 19.53 14.65 0 0 14.64 19.52 0 0 29.29 14.64 0 0 19.52 14.65 0 0 14.64 19.52 0 0 14.64 14.64 0 0 14.65 14.64 0 0 4.88 14.65 0 0 9.76 4.88 0 0 4.88 14.64 0 0 14.64 29.29 0 0 14.65 14.64 0 0 19.52 34.17 0 0 14.64 48.8 0 0 14.64 29.29 0 0 14.65 48.81 0 0 14.64 34.16 0 0 4.88 126.91 0 0 14.64 175.71 0 0 14.65 556.42 0 0 14.64 43.93 0 0 19.52 19.52 0 0 14.64 14.64 0 0 29.29 14.65 0 0 146.43 -14.65 0 0 14.64 -14.64 0 0 14.64 -19.52 0 0 14.64 -29.29 0 0 19.53 -190.35 0 0 -14.64 -14.65 0 0 -4.89 -63.45 0 0 -14.64 -112.26 0 0 -14.64 -63.45 0 0 -14.64 -34.16 0 0 -4.89 -78.1 0 0 -9.76 -14.64 0 0 -4.88 -112.26 0 0 -14.64 -287.97 0 0 14.64 -63.45 0 0 4.88 -48.81 0 0 9.76 -14.65 0 0 4.89 -34.16 0 0 14.64 -43.93 0 0 14.64 -34.17 0 0 14.64 -14.64 0 0 19.53 -34.17 0 0 14.64 -29.28 0 0 14.64 -19.52 0 0 14.65 -14.65 0 0 4.88 -14.64 0 0 14.64 -14.64 0 0 14.64 -19.53 0 0 14.64 -14.64 0 0 19.53 -14.64 0 0 29.28 -19.52 0 0 14.65 -14.65 0 0 34.16 -14.64 0 0 34.17 -14.64 0 0 43.93 -19.53 0 0 48.8 -9.76 0 0 34.17 -4.88 0 0 156.19 4.88 0 0 14.64 9.76 0 0 34.17 4.89 0 0 29.28 14.64 0 0 48.81 14.64 0 0 34.17 19.52 0 0 14.64 14.65 0 0 34.17 14.64 0 0 14.64 14.64 0 0 14.64 19.53 0 0 14.64 14.64 0 0 14.65 14.64 0 0 19.52 14.64 0 0 14.64 19.53 0 0 14.64 14.64 0 0 4.89 14.64 0 0 9.76 14.64 0 0 19.52 34.17 0 0 14.64 48.81 0 0 14.65 29.28 0 0 14.64 14.65 0 0 4.88 48.81 0 0 14.64 78.09 0 0 14.64 34.17 0 0 14.65 14.64 0 0 224.52 14.64 0 0 48.81 19.53 0 0 48.8 14.64 0 0 29.29 14.64 0 0 34.17 14.64 0 0 14.64 19.53 0 0 29.28 14.64 0 0 19.53 14.64 0 0 14.64 14.64 0 0 14.64 19.53 0 0 19.53 14.64 0 0 14.64 14.64 0 0 14.64 34.17 0 0 14.64 34.17 0 0 14.65 29.28 0 0 19.52 29.29 0 0 14.64 48.8 0 0 14.65 224.53 0 0 -14.65 63.45 0 0 -14.64 34.16 0 0 -19.52 29.29 0 0 -14.65 29.28 0 0 -14.64 34.17 0 0 -19.52 14.64 0 0 -9.76 14.64 0 0 -4.88 4.89 0 0 -14.65 29.28 0 0 -14.64 19.52 0 0 -14.64 14.65 0 0 -14.64 14.64 0 0 -19.53 14.64 0 0 -29.28 19.52 0 0 -14.65 14.65 0 0 -34.16 14.64 0 0 -34.17 19.52 0 0 -14.64 14.65 0 0 -43.93 14.64 0 0 -48.81 14.64 0 0 -82.97 14.65 0 0 -78.1 4.87 0 0 -34.16 9.77 0 0 -29.29 4.88 0 0 -97.62 14.64 0 0 -141.54 14.64 0 0 -126.9 14.65 0 0 -97.62 4.88 0 0 -14.64 9.76 0 0 -14.65 4.88 0 0 -34.16 14.64 0 0 -29.29 14.65 0 0 -19.52 14.64 0 0 -14.64 19.52 0 0 -14.65 14.64 0 0 -14.64 92.74 0 0 14.64 4.88 0 0 14.65 9.76 0 0 14.64 4.88 0 0 34.17 14.65 0 0 400.23 -14.65 0 0 170.83 -4.88 0 0 19.52 -9.76 0 0 43.93 -4.88 0 0 63.45 -14.64 0 0 117.14 -14.65 0 0 58.57 -14.64 0 0 34.17 -4.88 0 0 14.64 -9.76 0 0 14.64 -4.88 0 0 34.17 -14.64 0 0 48.81 -14.65 0 0 14.64 -14.64 0 0 29.29 -4.88 0 0 19.52 -14.64 0 0 29.28 -14.64 0 0 34.17 -14.65 0 0 14.64 -19.52 0 0 29.29 -14.64 0 0 19.52 -14.65 0 0 29.29 -14.64 0 0 19.52 -14.64 0 0 14.64 -19.52 0 0 14.65 -14.65 0 0 14.64 -14.64 0 0 4.88 -14.64 0 0 14.64 -19.53 0 0 14.64 -14.64 0 0 14.65 -14.64 0 0 19.52 -34.17 0 0 14.64 -29.28 0 0 14.65 -34.17 0 0 48.8 19.52 0 0 14.65 14.65 0 0 14.64 14.64 0 0 19.52 14.64 0 0 14.64 14.64 0 0 14.65 19.53 0 0 14.64 29.28 0 0 19.52 34.17 0 0 14.65 29.29 0 0 14.64 97.61 0 0 -29.29 14.65 0 0 -19.52 14.64 0 0 -29.29 14.64 0 0 -19.52 19.52 0 0 -29.28 14.65 0 0 -29.29 14.64 0 0 -19.52 19.52 0 0 -29.29 14.64 0 0 -48.81 14.65 0 0 -29.28 14.64 0 0 -19.52 4.88 0 0 -14.65 14.64 0 0 -48.81 14.65 0 0 -48.8 14.64 0 0 -63.46 14.64 0 0 -63.45 19.52 0 0 -78.09 14.65 0 0 -112.26 14.64 0 0 -190.36 14.64 0 0 -619.87 4.88 0 0 -14.64 14.65 0 0 -68.33 14.64 0 0 -29.29 14.64 0 0 -14.64 63.45 0 0 14.64 48.81 0 0 14.65 19.52 0 0 14.64 14.65 0 0 34.17 14.64 0 0 48.8 14.64 0 0 268.45 14.64 0 0 317.26 4.89 0 0 48.81 9.76 0 0 34.16 4.88 0 0 43.93 14.64 0 0 82.98 14.64 0 0 29.28 19.53 0 0 48.81 14.64 0 0 34.17 14.64 0 0 14.64 14.64 0 0 34.17 19.53 0 0 14.64 14.64 0 0 14.64 14.64 0 0 29.29 14.65 0 0 19.52 34.16 0 0 14.64 14.65 0 0 14.64 19.52 0 0 14.65 14.64 0 0 4.88 14.64 0 0 14.64 14.65 0 0 14.64 34.16 0 0 14.65 43.93 0 0 4.88 4.88 0 0 9.76 14.64 0 0 4.88 29.29 0 0 14.64 48.81 0 0 14.64 204.99 0 0 -14.64 63.46 0 0 -14.64 19.52 0 0 -4.88 14.64 0 0 -9.76 29.29 0 0 -4.88 4.88 0 0 -14.65 14.64 0 0 -14.64 34.17 0 0 -14.64 14.64 0 0 -14.64 14.64 0 0 -19.53 14.65 0 0 -14.64 19.52 0 0 -14.64 9.76 0 0 -4.88 4.88 0 0 -14.65 14.64 0 0 -14.64 14.65 0 0 -34.17 14.64 0 0 -29.28 19.52 0 0 -29.29 14.65 0 0 -34.16 14.64 0 0 -48.81 19.52 0 0 -78.1 14.64 0 0 -161.06 14.65 0 0 -14.65 63.45 0 0 -14.64 63.45 0 0 -4.88 14.64 0 0 -9.76 19.53 0 0 -4.88 29.28 0 0 -14.65 48.81 0 0 -14.64 14.64 0 0 -14.64 34.17 0 0 -14.64 14.64 0 0 -4.88 14.64 0 0 -14.65 14.65 0 0 -14.64 34.16 0 0 -14.64 14.65 0 0 -14.64 4.88 0 0 -4.89 14.64 0 0 -14.64 14.64 0 0 -29.28 14.64 0 0 -19.53 19.53 0 0 -14.64 14.64 0 0 -14.64 14.64 0 0 -34.17 14.65 0 0 -63.45 14.64 0 0 -14.64 4.88 0 0 -34.17 9.76 0 0 -14.64 4.88 0 0 -205 -4.88 0 0 -19.52 -9.76 0 0 -43.93 -4.88 0 0 -19.52 -14.64 0 0 -14.64 -14.65 0 0 -34.17 -14.64 0 0 -29.29 -19.52 0 0 -14.64 -14.65 0 0 -14.64 -14.64 0 0 -19.52 -14.64 0 0 -29.29 -34.17 0 0 -14.64 -14.64 0 0 -19.53 -14.64 0 0 -14.64 -34.17 0 0 -14.64 -14.64 0 0 -14.64 -19.53 0 0 -4.88 -14.64 0 0 -14.65 -29.28 0 0 -14.64 -48.81 0 0 -14.64 -48.81 0 0 -19.53 -48.81 0 0 -14.64 -302.61 0 0 14.64 -78.1 0 0 4.89 -29.28 0 0 9.76 -34.17 0 0 4.88 -78.09 0 0 14.64 -97.62 0 0 14.64 -287.97 0 0 -14.64 -112.26 0 0 -14.64 -29.29 0 0 -19.53 -14.64 0 0 -14.64 -14.64 0 0 -14.64 -19.53 0 0 -34.17 -14.64 0 0 -78.09 14.64 0 0 -29.29 4.88 0 0 -4.88 9.77 0 0 -14.64 4.88 0 0 -14.64 14.64 0 0 -14.65 34.17 0 0 -14.64 29.28 0 0 -19.52 92.74 0 0 -14.64 131.78 0 0 14.64 492.97 0 0 -14.64 107.38 0 0 -14.65 97.62 0 0 -4.88 14.64 0 0 -9.76 34.17 0 0 -4.88 43.92 0 0 -9.76 4.88 0 0 -4.88 29.29 0 0 -14.65 34.17 0 0 -14.64 29.28 0 0 -14.64 14.64 0 0 -19.52 34.17 0 0 -14.65 14.64 0 0 -14.64 34.17 0 0 -34.17 14.64 0 0 -14.64 14.64 0 0 -14.64 19.53 0 0 -14.64 14.64 0 0 -19.53 14.64 0 0 -29.28 14.65 0 0 -34.17 19.52 0 0 -14.64 14.64 0 0 -34.17 14.64 0 0 -63.45 19.53 0 0 -48.81 9.76 0 0 -14.64 4.88 0 0 -112.26 -4.88 0 0 -29.28 -9.76 0 0 -34.17 -4.88 0 0 -43.93 -14.65 0 0 -34.16 -14.64 0 0 -34.17 -14.64 0 0 -14.64 -4.88 0 0 -14.65 -14.64 0 0 -14.64 -14.65 0 0 -34.16 -14.64 0 0 -14.65 -19.52 0 0 -14.64 -14.65 0 0 -19.52 -14.64 0 0 -14.65 -14.64 0 0 -14.64 -34.17 0 0 -19.52 -14.64 0 0 -14.64 -34.17 0 0 -14.65 -29.28 0 0 -14.64 -14.64 0 0 -4.88 -14.65 0 0 -9.76 -4.88 0 0 -4.88 -43.93 0 0 -14.65 -112.26 0 0 -14.64 -112.26 0 0 -19.52 -14.64 0 0 -107.38 -4.88 0 0 -14.64 -9.76 0 0 -34.17 -4.88 0 0 -29.29 -14.64 0 0 -34.16 -14.65 0 0 -48.81 -14.64 0 0 -14.64 -19.52 0 0 -29.29 -14.65 0 0 -19.52 -14.64 0 0 -29.29 -14.64 0 0 -14.64 -19.52 0 0 -19.52 -14.65 0 0 -14.65 -14.64 0 0 -19.52 -14.64 0 0 -9.76 -4.88 0 0 -4.88 -29.29 0 0 -14.64 -14.64 0 0 -14.65 -19.53 0 0 -14.64 -14.64 0 0 -4.88 -14.64 0 0 -14.64 -48.81 0 0 -14.64 -48.81 0 0 -14.65 -78.09 0 0 -14.64 -112.26 0 0 14.64 -97.62 0 0 14.65 -29.28 0 0 14.64 -48.81 0 0 19.52 -14.65 0 0 14.64 -34.16 0 0 14.65 -14.65 0 0 19.52 -14.64 0 0 14.64 -14.64 0 0 14.64 -19.52 0 0 14.65 -14.65 0 0 14.64 -14.64 0 0 19.52 -14.64 0 0 14.65 -14.64 0 0 14.64 -19.53 0 0 34.16 -14.64 0 0 29.29 -14.64 0 0 19.52 -14.65 0 0 14.65 -4.88 0 0 14.64 -14.64 0 0 63.45 -14.64 0 0 34.17 -19.52 0 0 63.45 -14.65 0 0 175.71 -14.64 0 0 126.9 14.64 0 0 14.64 -14.64 0 0 14.65 14.64 0 0 190.35 4.88 0 0 48.81 9.77 0 0 351.42 -14.65 0 0 48.81 -14.64 0 0 29.29 -14.64 0 0 19.52 -14.65 0 0 14.64 -19.52 0 0 14.64 -29.28 0 0 14.65 -126.91 0 0 -14.65 -19.52 0 0 -14.64 -29.29 0 0 -34.16 -14.64 0 0 -48.81 -14.64 0 0 -239.16 9.76 0 0 -43.93 4.88 0 0 -146.43 14.64 0 0 -541.78 -14.64 0 0 -63.45 -14.64 0 0 -29.28 -4.88 0 0 -34.17 -14.64 0 0 -29.28 -14.65 0 0 -34.17 -19.52 0 0 -14.64 -14.64 0 0 -29.29 -14.64 0 0 -34.16 -14.65 0 0 -14.65 -14.64 0 0 -14.64 -19.52 0 0 -19.52 -14.65 0 0 -14.65 -14.64 0 0 -14.64 -19.52 0 0 -14.64 -14.64 0 0 -19.52 -29.29 0 0 -14.65 -14.64 0 0 -19.52 -34.17 0 0 -14.64 -29.29 0 0 -14.64 -53.68 0 0 -14.65 -78.1 0 0 -14.64 -126.9 0 0 14.64 -92.74 0 0 14.65 -48.81 0 0 14.64 -34.16 0 0 14.64 -14.64 0 0 19.52 -34.17 0 0 14.65zm414.87 -175.71l0 4.88 19.53 0 0 9.76 29.28 0 0 4.88 19.52 0 0 9.76 9.77 0 0 4.88 19.52 0 0 14.64 48.81 0 0 14.65 14.64 0 0 4.88 14.65 0 0 9.76 14.64 0 0 4.88 4.88 0 0 14.64 29.28 0 0 14.65 14.65 0 0 14.64 19.52 0 0 14.64 14.64 0 0 19.52 14.65 0 0 14.65 19.52 0 0 14.64 14.64 0 0 19.52 14.64 0 0 14.64 14.65 0 0 14.65 14.64 0 0 14.64 4.88 0 0 4.88 9.76 0 0 14.64 4.88 0 0 14.65 14.64 0 0 29.28 14.65 0 0 34.17 14.64 0 0 14.64 4.88 0 0 14.64 9.76 0 0 4.88 4.88 0 0 43.93 14.65 0 0 48.81 14.64 0 0 112.26 14.64 0 0 507.61 -9.76 0 0 48.81 -4.88 0 0 112.26 -14.64 0 0 141.54 -14.65 0 0 82.98 14.65 0 0 43.93 14.64 0 0 19.52 82.97 0 0 -19.52 14.65 0 0 -29.29 14.64 0 0 -63.45 14.64 0 0 -97.62 -14.64 0 0 -780.94 14.64 0 0 -63.45 4.88 0 0 -29.28 9.76 0 0 -34.17 19.53 0 0 -43.93 14.64 0 0 -34.16 14.64 0 0 -34.17 14.65 0 0 -14.64 4.88 0 0 -14.64 14.64 0 0 -14.65 14.64 0 0 -34.16 14.64 0 0 -14.65 19.53 0 0 -14.64 14.64 0 0 -19.52 14.64 0 0 -14.64 14.64 0 0 -14.65 19.53 0 0 -14.64 14.64 0 0 -19.52 34.17 0 0 -14.64 14.64 0 0 -14.65 29.28 0 0 -14.64 14.65 0 0 -4.88 4.88 0 0 -14.64 43.93 0 0 -14.65 34.16 0 0 -14.64 48.81 0 0 -14.64 29.29 0 0 -14.64 14.64 0 0 -4.88 239.16 0 0 19.52 63.45 0 0 14.64 48.81 0 0 14.64 34.17 0 0 14.65 29.28 0 0 19.52 34.17 0 0 14.64 14.64 0 0 14.65 14.65 0 0 14.64 19.52 0 0 14.64 14.64 0 0 4.88 14.64 0 0 29.29 19.53 0 0 14.64 9.76 0 0 4.88 4.88 0 0 14.64 14.64 0 0 14.64 14.65 0 0 29.29 19.52 0 0 19.52 14.64 0 0 29.29 14.64 0 0 34.16 14.65 0 0 43.93 14.64 0 0 4.88 4.88 0 0 29.29 9.76 0 0 14.64 4.88 0 0 63.45 14.65 0 0 63.45 14.64 0 0 4.88 48.81 0 0 9.77 14.64 0 0 4.88 82.97 0 0 14.64 43.93 0 0 14.64 48.81 0 0 19.53 34.17 0 0 14.64 29.28 0 0 14.64 34.17 0 0 14.64 29.28 0 0 14.65 14.65 0 0 4.88 4.88 0 0 14.64 14.64 0 0 14.64 14.64 0 0 14.65 29.29 0 0 19.52 4.88 0 0 14.64 14.64 0 0 14.64 14.64 0 0 14.65 14.65 0 0 19.52 19.52 0 0 29.29 14.64 0 0 34.16 14.65 0 0 29.29 14.64 0 0 34.16 14.64 0 0 14.65 4.88 0 0 48.8 14.64 0 0 268.45 -14.64 0 0 48.81 -4.88 0 0 14.64 -14.64 0 0 34.17 -14.64 0 0 48.81 -14.65 0 0 14.64 -14.64 0 0 29.29 -19.52 0 0 34.16 -14.65 0 0 14.64 -14.64 0 0 14.65 -4.88 0 0 4.88 -9.76 0 0 14.64 -4.88 0 0 14.64 -14.64 0 0 14.65 -14.65 0 0 14.64 -14.64 0 0 19.52 -14.64 0 0 14.64 -34.17 0 0 14.65 -14.64 0 0 19.52 -14.64 0 0 14.64 -34.17 0 0 14.65 -34.17 0 0 14.64 -29.28 0 0 14.64 -34.17 0 0 14.64 -14.64 0 0 4.88 -29.29 0 0 14.65 -82.97 0 0 14.64 -92.74 0 0 14.64 -34.16 0 0 4.88 -175.71 0 0 9.76 -14.65 0 0 4.89 -366.06 0 0 -14.65 -175.71 0 0 14.65 -63.46 0 0 14.64 -14.64 0 0 14.64 -14.64 0 0 48.81 29.28 0 0 14.64 34.17 0 0 4.88 48.81 0 0 9.76 219.64 0 0 -9.76 63.45 0 0 -4.88 97.62 0 0 -14.64 141.54 0 0 -14.64 126.91 0 0 -14.65 239.16 0 0 14.65 78.09 0 0 14.64 48.81 0 0 14.64 48.81 0 0 19.53 29.28 0 0 14.64 34.17 0 0 14.64 29.29 0 0 14.64 19.52 0 0 19.53 14.64 0 0 14.64 34.17 0 0 14.64 14.64 0 0 14.65 14.64 0 0 19.52 14.65 0 0 14.64 19.52 0 0 29.29 9.76 0 0 4.88 4.88 0 0 14.64 14.65 0 0 14.64 14.64 0 0 34.17 19.52 0 0 14.64 14.64 0 0 29.29 14.65 0 0 34.16 14.64 0 0 14.65 4.88 0 0 19.52 9.76 0 0 14.64 4.88 0 0 43.93 14.65 0 0 82.97 14.64 0 0 141.55 -14.64 0 0 78.09 -14.65 0 0 48.81 -4.88 0 0 14.64 -9.76 0 0 19.53 -4.88 0 0 14.64 -14.64 0 0 34.17 -14.65 0 0 14.64 -14.64 0 0 29.28 -19.52 0 0 19.53 -14.64 0 0 14.64 -14.65 0 0 14.64 -14.64 0 0 14.65 -19.52 0 0 19.52 -14.65 0 0 14.64 -14.64 0 0 14.64 -19.52 0 0 14.65 -29.29 0 0 19.52 -14.64 0 0 14.64 -34.17 0 0 14.65 -29.28 0 0 19.52 -34.17 0 0 9.76 -14.64 0 0 4.88 -34.17 0 0 14.64 -63.45 0 0 14.65 -63.45 0 0 34.16 -14.64 0 0 126.91 -14.64 0 0 63.45 -14.65 0 0 14.64 -4.88 0 0 34.17 -14.64 0 0 48.81 -14.64 0 0 29.28 -14.65 0 0 14.64 -4.88 0 0 14.65 -9.76 0 0 19.52 -19.52 0 0 14.64 -14.64 0 0 14.64 -14.65 0 0 34.17 -19.52 0 0 14.64 -14.64 0 0 14.65 -14.65 0 0 19.52 -29.28 0 0 14.64 -19.52 0 0 14.64 -29.29 0 0 19.53 -14.64 0 0 9.76 -4.88 0 0 4.88 -29.29 0 0 14.64 -48.81 0 0 14.65 -48.81 0 0 19.52 -48.81 0 0 9.76 -29.28 0 0 4.88 -190.35 0 0 -19.52 -48.81 0 0 -14.64 -48.81 0 0 -14.65 -48.81 0 0 -14.64 -14.64 0 0 -4.88 -14.65 0 0 -9.76 -14.64 0 0 -4.88 -19.52 0 0 -14.65 -14.64 0 0 -14.64 -29.29 0 0 -14.64 -19.52 0 0 -19.52 -14.65 0 0 -14.65 -29.28 0 0 -14.64 -19.53 0 0 -14.64 -14.64 0 0 -19.53 -14.64 0 0 -14.64 -14.64 0 0 -14.64 -4.88 0 0 -14.64 -9.77 0 0 -4.88 -4.88 0 0 -14.65 -14.64 0 0 -29.28 -19.52 0 0 -14.64 -9.76 0 0 -19.53 -4.89 0 0 -14.64 -14.64 0 0 -34.17 -14.64 0 0 -43.93 -14.64 0 0 -34.16 -14.65 0 0 -92.74 -14.64 0 0 -63.45 -4.88 0 0 -97.62 -14.64 0 0 -414.87 -14.64 0 0 -141.55 -19.53 0 0 -14.64 -14.64 0 0 634.51 -14.64 0 0 205 -14.65 0 0 126.9 -14.64 0 0 4.89 -4.88 0 0 63.45 -14.64 0 0 63.45 -14.64 0 0 63.45 -14.65 0 0 14.64 -4.88 0 0 29.29 -14.64 0 0 48.81 -14.64 0 0 34.16 -14.65 0 0 43.93 -4.88 0 0 4.88 -9.76 0 0 14.64 -4.88 0 0 14.65 -14.64 0 0 34.16 -14.64 0 0 29.29 -14.65 0 0 29.28 -4.88 0 0 4.88 -9.76 0 0 14.64 -19.52 0 0 29.29 -14.65 0 0 34.17 -14.64 0 0 14.64 -4.88 0 0 14.64 -9.76 0 0 19.52 -19.52 0 0 14.65 -14.65 0 0 14.64 -14.64 0 0 19.52 -19.52 0 0 14.65 -141.55 0 0 -14.65 -14.64 0 0 -4.88 -34.17 0 0 -14.64 -29.28 0 0 -14.64 -19.53 0 0 -14.65 -29.28 0 0 -14.64 -14.64 0 0 -19.52 -19.53 0 0 -14.64 -29.28 0 0 -19.53 -14.64 0 0 -14.64 -14.65 0 0 -14.64 -4.88 0 0 -14.65 -14.64 0 0 -14.64 -14.64 0 0 -34.16 -14.65 0 0 -112.26 14.65 0 0 -14.65 29.28 0 0 -14.64 34.17 0 0 -19.52 29.28 0 0 -14.64 19.53 0 0 -14.65 29.28 0 0 -19.52 14.64 0 0 -9.76 4.88 0 0 -4.88 29.29 0 0 -14.65 14.64 0 0 -14.64 14.65 0 0 -14.64 19.52 0 0 -19.52 14.64 0 0 -14.65 14.65 0 0 -14.64 19.52 0 0 -34.17 14.64 0 0 -14.64 14.64 0 0 -14.64 14.65 0 0 -34.17 19.52 0 0 -29.28 14.64 0 0 -34.17 14.65 0 0 -48.81 14.64 0 0 -29.28 4.88 0 0 -14.65 14.64 0 0 -48.8 14.64 0 0 -78.1 14.65 0 0 -82.97 14.64 0 0 -14.65 4.88 0 0 -209.87 9.76 0 0 -141.55 -9.76 0 0 -268.45 -4.88 0 0 -14.64 -14.64 0 0 14.64 -14.65 0 0 78.1 -14.64 0 0 63.45 -4.88 0 0 97.62 -9.76 0 0 14.64 -4.88 0 0 97.62 -14.64 0 0 126.9 -14.65 0 0 141.54 -14.64 0 0 78.1 -19.52 0 0 63.45 -14.65 0 0 48.81 -14.64 0 0 48.81 -14.64 0 0 14.64 -4.88 0 0 14.64 -14.64 0 0 19.53 -14.65 0 0 29.28 -14.64 0 0 14.64 -14.64 0 0 4.89 -4.88 0 0 14.64 -14.65 0 0 29.28 -14.64 0 0 19.53 -14.64 0 0 14.64 -19.53 0 0 14.64 -14.64 0 0 14.64 -14.64 0 0 14.65 -14.64 0 0 19.52 -34.17 0 0 14.64 -14.64 0 0 14.65 -34.17 0 0 19.52 -29.28 0 0 14.64 -34.17 0 0 14.64 -29.28 0 0 14.65 -34.17 0 0 4.88 -14.64 0 0 9.76 -34.17 0 0 4.88 -63.45 0 0 14.64 -156.19 0 0 -14.64 -78.09 0 0 -4.88 -19.53 0 0 -9.76 -14.64 0 0 -4.88 -14.64 0 0 -14.65 -48.81 0 0 -14.64 -34.17 0 0 -14.64 -29.28 0 0 -19.52 -14.64 0 0 -14.65 -19.53 0 0 -14.64 -14.64 0 0 -14.64 -14.64 0 0 -19.53 -14.65 0 0 -14.64 -19.52 0 0 -14.64 -14.64 0 0 -14.64 -14.64 0 0 -19.53 -19.53 0 0 -14.64 -14.64 0 0 -29.28 -14.64 0 0 -34.17 -14.65 0 0 -34.17 -14.64 0 0 -29.28 -4.88 0 0 -14.65 -14.64 0 0 -48.8 -14.64 0 0 -78.1 -14.65 0 0 -126.9 -19.52 0 0 -4.88 -43.93 0 0 -9.76 -19.52 0 0 -4.88 -14.65 0 0 -14.65 -48.8 0 0 -14.64 -43.93 0 0 -19.52 -34.17 0 0 -14.65 -34.16 0 0 -14.64 -29.29 0 0 -14.64 -14.64 0 0 -19.52 -19.53 0 0 -14.65 -29.28 0 0 -14.64 -14.64 0 0 -14.64 -14.65 0 0 -4.88 -4.88 0 0 -14.65 -14.64 0 0 -14.64 -14.64 0 0 -14.64 -14.64 0 0 -34.17 -19.53 0 0 -14.64 -14.64 0 0 -29.28 -14.64 0 0 -34.17 -14.65 0 0 -29.29 -4.88 0 0 -4.88 -14.64 0 0 -43.93 -14.64 0 0 -82.97 -14.64 0 0 -141.54 14.64 0 0 -97.62 14.64 0 0 -43.93 19.52 0 0 -34.17 14.65 0 0 -48.8 14.64 0 0 -14.65 14.64 0 0 -29.28 4.88 0 0 -4.88 9.76 0 0 -14.65 4.89 0 0 -14.64 14.64 0 0 -14.64 14.64 0 0 -14.64 14.64 0 0 -19.53 19.53 0 0 -14.64 14.64 0 0 -14.64 14.64 0 0 -19.53 14.64 0 0 -14.64 19.53 0 0 -14.64 14.64 0 0 -14.64 14.64 0 0 -14.65 14.65 0 0 -4.88 19.52 0 0 -14.64 29.28 0 0 -14.64 34.17 0 0 -14.65 29.29 0 0 -14.64 19.52 0 0 -4.88 29.28 0 0 -14.64 78.1 0 0 -14.64 429.52 0 0 14.64 161.07 0 0 4.88 14.64 0 0 9.76 112.26 0 0 19.52 82.97 0 0 14.65 78.1 0 0 14.64 78.09 0 0 14.64 78.09 0 0 -14.64 19.53 0 0 -29.29 14.64 0 0 -34.16 -14.64 0 0 -14.64 -19.53 0 0 -14.65 -14.64 0 0 -4.88 -29.28 0 0 -14.64 -146.43 0 0 14.64 -302.61 0 0 -14.64 -156.19 0 0 -14.64 -161.07 0 0 -14.65 -112.26 0 0 -14.64 -48.81 0 0 -19.52 -43.93 0 0 -14.64 -34.16 0 0 -14.65 -29.29 0 0 -4.88 -4.88 0 0 -9.76 -29.29 0 0 -19.52 -14.64 0 0 -14.65 -34.16 0 0 -14.64 -14.65 0 0 -19.52 -14.64 0 0 -14.64 -14.64 0 0 -14.65 -19.53 0 0 -14.64 -14.64 0 0 -19.52 -14.64 0 0 -14.65 -19.52 0 0 -14.64 -14.65 0 0 -34.16 -14.64 0 0 -14.65 -14.64 0 0 -29.28 -14.64 0 0 -19.53 -4.89 0 0 -14.64 -14.64 0 0 -29.28 -14.64 0 0 -48.81 -14.64 0 0 -34.17 -4.88 0 0 -14.64 -9.77 0 0 -48.81 -4.88 0 0 -29.28 -14.64 0 0 -146.43 14.64 0 0 -78.09 4.88 0 0 -14.65 9.77 0 0 -34.16 19.52 0 0 -29.29 14.64 0 0 -34.16 14.64 0 0 -29.29 19.53 0 0 -34.17 14.64 0 0 -14.64 14.64 0 0 -14.64 19.53 0 0 -34.17 14.64 0 0 -14.64 29.28 0 0 -19.52 14.65 0 0 -9.76 4.88 0 0 -4.89 14.64 0 0 -14.64 14.64 0 0 -14.64 34.17 0 0 -14.64 14.64 0 0 -4.89 14.64 0 0 -14.64 34.17 0 0 -14.64 29.29 0 0 -14.64 14.64 0 0 -4.88 19.52 0 0 -9.77 14.65 0 0 -4.88 48.8 0 0 -14.64 156.19 0 0 -14.64 19.53 0 0 -63.45 14.64 0 0 -48.81 14.64 0 0 -43.93 4.88 0 0 -4.88 9.76 0 0 -43.93 4.88 0 0 -4.88 9.77 0 0 -14.64 4.88 0 0 -14.64 14.64 0 0 -14.65 14.64 0 0 -34.16 14.64 0 0 -29.29 19.53 0 0 -19.52 14.64 0 0 -14.64 14.64 0 0 -14.65 14.65 0 0 -14.64 19.52 0 0 -19.52 14.64 0 0 -14.64 14.64 0 0 -14.65 19.53 0 0 -14.64 29.28 0 0 -19.52 34.17 0 0 -14.65 29.29 0 0 -14.64 34.16 0 0 -14.64 14.64 0 0 -4.88 14.65 0 0 -14.64 97.61 0 0 -14.65 141.55 0 0 14.65 78.09 0z"/>
    <polygon class="fil0 str0" points="3881.58,1614.75 3862.05,1614.75 3862.05,1634.27 3847.41,1634.27 3847.41,1648.91 3832.77,1648.91 3832.77,1663.56 3798.6,1663.56 3798.6,1683.08 3783.96,1683.08 3783.96,1697.72 3754.68,1697.72 3754.68,1712.36 3720.51,1712.36 3720.51,1727.01 3691.22,1727.01 3691.22,1731.89 3686.34,1731.89 3686.34,1741.65 3642.42,1741.65 3642.42,1746.53 3608.25,1746.53 3608.25,1756.29 3593.61,1756.29 3593.61,1761.17 3495.99,1761.17 3495.99,1775.82 3388.61,1775.82 3388.61,1790.46 2895.64,1790.46 2895.64,1775.82 2763.86,1775.82 2763.86,1790.46 2671.12,1790.46 2671.12,1809.98 2641.84,1809.98 2641.84,1824.62 2607.67,1824.62 2607.67,1839.27 2593.03,1839.27 2593.03,1853.91 2588.15,1853.91 2588.15,1868.55 2578.38,1868.55 2578.38,1873.43 2573.5,1873.43 2573.5,1902.72 2558.86,1902.72 2558.86,1980.81 2573.5,1980.81 2573.5,2014.98 2593.03,2014.98 2593.03,2029.62 2607.67,2029.62 2607.67,2044.26 2622.31,2044.26 2622.31,2063.79 2651.6,2063.79 2651.6,2078.43 2763.86,2078.43 2763.86,2093.07 3051.83,2093.07 3051.83,2078.43 3149.45,2078.43 3149.45,2063.79 3227.54,2063.79 3227.54,2058.91 3261.71,2058.91 3261.71,2049.15 3290.99,2049.15 3290.99,2044.26 3369.09,2044.26 3369.09,2029.62 3671.7,2029.62 3671.7,2044.26 3720.51,2044.26 3720.51,2063.79 3769.32,2063.79 3769.32,2078.43 3818.13,2078.43 3818.13,2093.07 3847.41,2093.07 3847.41,2107.72 3862.05,2107.72 3862.05,2112.6 3881.58,2112.6 3881.58,2127.24 3896.22,2127.24 3896.22,2141.88 3930.39,2141.88 3930.39,2156.52 3945.03,2156.52 3945.03,2176.05 3959.67,2176.05 3959.67,2190.69 3993.84,2190.69 3993.84,2219.98 4008.48,2219.98 4008.48,2239.5 4023.12,2239.5 4023.12,2254.14 4037.77,2254.14 4037.77,2268.78 4057.29,2268.78 4057.29,2298.07 4071.93,2298.07 4071.93,2332.24 4086.58,2332.24 4086.58,2346.88 4101.22,2346.88 4101.22,2366.4 4106.1,2366.4 4106.1,2410.33 4115.86,2410.33 4115.86,2429.85 4120.74,2429.85 4120.74,2634.85 4115.86,2634.85 4115.86,2649.49 4106.1,2649.49 4106.1,2683.66 4101.22,2683.66 4101.22,2698.3 4086.58,2698.3 4086.58,2761.75 4071.93,2761.75 4071.93,2795.92 4057.29,2795.92 4057.29,2810.56 4042.65,2810.56 4042.65,2825.2 4023.12,2825.2 4023.12,2844.73 4008.48,2844.73 4008.48,2874.01 3993.84,2874.01 3993.84,2888.65 3979.2,2888.65 3979.2,2893.54 3974.32,2893.54 3974.32,2908.18 3959.67,2908.18 3959.67,2922.82 3925.51,2922.82 3925.51,2937.46 3910.86,2937.46 3910.86,2952.11 3866.94,2952.11 3866.94,2937.46 3881.58,2937.46 3881.58,2922.82 3896.22,2922.82 3896.22,2908.18 3910.86,2908.18 3910.86,2903.3 3915.74,2903.3 3915.74,2893.54 3925.51,2893.54 3925.51,2888.65 3930.39,2888.65 3930.39,2874.01 3945.03,2874.01 3945.03,2859.37 3959.67,2859.37 3959.67,2844.73 3974.32,2844.73 3974.32,2825.2 3993.84,2825.2 3993.84,2795.92 4008.48,2795.92 4008.48,2747.11 4023.12,2747.11 4023.12,2712.94 4037.77,2712.94 4037.77,2683.66 4042.65,2683.66 4042.65,2654.37 4052.41,2654.37 4052.41,2459.14 4042.65,2459.14 4042.65,2444.5 4037.77,2444.5 4037.77,2410.33 4023.12,2410.33 4023.12,2366.4 4008.48,2366.4 4008.48,2332.24 3988.96,2332.24 3988.96,2317.59 3979.2,2317.59 3979.2,2302.95 3974.32,2302.95 3974.32,2298.07 3959.67,2298.07 3959.67,2283.43 3945.03,2283.43 3945.03,2254.14 3910.86,2254.14 3910.86,2239.5 3896.22,2239.5 3896.22,2219.98 3881.58,2219.98 3881.58,2205.33 3847.41,2205.33 3847.41,2190.69 3818.13,2190.69 3818.13,2171.17 3783.96,2171.17 3783.96,2156.52 3754.68,2156.52 3754.68,2141.88 3691.22,2141.88 3691.22,2127.24 3608.25,2127.24 3608.25,2112.6 3432.54,2112.6 3432.54,2127.24 3325.16,2127.24 3325.16,2141.88 3212.9,2141.88 3212.9,2156.52 3115.28,2156.52 3115.28,2161.41 3051.83,2161.41 3051.83,2171.17 2846.83,2171.17 2846.83,2156.52 2734.57,2156.52 2734.57,2141.88 2671.12,2141.88 2671.12,2127.24 2622.31,2127.24 2622.31,2112.6 2607.67,2112.6 2607.67,2093.07 2573.5,2093.07 2573.5,2078.43 2558.86,2078.43 2558.86,2044.26 2544.22,2044.26 2544.22,2029.62 2524.69,2029.62 2524.69,1980.81 2510.05,1980.81 2510.05,1746.53 2524.69,1746.53 2524.69,1697.72 2544.22,1697.72 2544.22,1663.56 2558.86,1663.56 2558.86,1634.27 2573.5,1634.27 2573.5,1585.46 2593.03,1585.46 2593.03,1570.82 2607.67,1570.82 2607.67,1536.65 2622.31,1536.65 2622.31,1487.84 2636.95,1487.84 2636.95,1473.2 2651.6,1473.2 2651.6,1458.56 2671.12,1458.56 2671.12,1424.39 2685.76,1424.39 2685.76,1409.75 2700.41,1409.75 2700.41,1395.11 2705.29,1395.11 2705.29,1380.46 2715.05,1380.46 2715.05,1375.59 2719.93,1375.59 2719.93,1360.94 2734.57,1360.94 2734.57,1331.66 2749.22,1331.66 2749.22,1312.13 2768.74,1312.13 2768.74,1297.49 2783.38,1297.49 2783.38,1268.21 2798.02,1268.21 2798.02,1253.56 2812.67,1253.56 2812.67,1234.04 2827.31,1234.04 2827.31,1219.4 2846.83,1219.4 2846.83,1204.75 2861.48,1204.75 2861.48,1170.59 2876.12,1170.59 2876.12,1155.95 2895.64,1155.95 2895.64,1141.3 2910.28,1141.3 2910.28,1126.66 2924.93,1126.66 2924.93,1107.14 2944.45,1107.14 2944.45,1092.49 2959.09,1092.49 2959.09,1072.97 2973.74,1072.97 2973.74,1058.33 2988.38,1058.33 2988.38,1043.69 3003.02,1043.69 3003.02,1029.04 3022.54,1029.04 3022.54,1014.4 3037.19,1014.4 3037.19,994.88 3051.83,994.88 3051.83,980.23 3086,980.23 3086,965.59 3100.64,965.59 3100.64,946.07 3115.28,946.07 3115.28,931.43 3129.92,931.43 3129.92,916.78 3149.45,916.78 3149.45,902.14 3178.73,902.14 3178.73,882.62 3193.37,882.62 3193.37,867.97 3212.9,867.97 3212.9,853.33 3242.18,853.33 3242.18,838.69 3261.71,838.69 3261.71,819.17 3290.99,819.17 3290.99,804.52 3310.52,804.52 3310.52,789.88 3339.8,789.88 3339.8,770.36 3354.44,770.36 3354.44,755.71 3388.61,755.71 3388.61,741.07 3417.9,741.07 3417.9,726.43 3432.54,726.43 3432.54,662.98 3417.9,662.98 3417.9,614.17 3403.25,614.17 3403.25,565.36 3383.73,565.36 3383.73,536.07 3373.97,536.07 3373.97,531.19 3369.09,531.19 3369.09,501.91 3354.44,501.91 3354.44,487.27 3339.8,487.27 3339.8,453.1 3325.16,453.1 3325.16,438.46 3305.64,438.46 3305.64,423.81 3290.99,423.81 3290.99,404.29 3276.35,404.29 3276.35,389.65 3261.71,389.65 3261.71,375.01 3242.18,375.01 3242.18,355.48 3227.54,355.48 3227.54,345.72 3212.9,345.72 3212.9,326.2 3178.73,326.2 3178.73,311.55 3149.45,311.55 3149.45,296.91 3115.28,296.91 3115.28,282.27 3100.64,282.27 3100.64,277.39 3086,277.39 3086,262.75 3022.54,262.75 3022.54,248.1 2861.48,248.1 2861.48,262.75 2812.67,262.75 2812.67,277.39 2763.86,277.39 2763.86,296.91 2734.57,296.91 2734.57,311.55 2715.05,311.55 2715.05,326.2 2685.76,326.2 2685.76,340.84 2671.12,340.84 2671.12,360.36 2656.48,360.36 2656.48,375.01 2636.95,375.01 2636.95,389.65 2622.31,389.65 2622.31,404.29 2607.67,404.29 2607.67,423.81 2593.03,423.81 2593.03,438.46 2588.15,438.46 2588.15,453.1 2573.5,453.1 2573.5,487.27 2558.86,487.27 2558.86,501.91 2544.22,501.91 2544.22,550.72 2524.69,550.72 2524.69,580 2510.05,580 2510.05,643.45 2495.41,643.45 2495.41,706.9 2480.77,706.9 2480.77,789.88 2461.24,789.88 2461.24,1395.11 2446.6,1395.11 2446.6,1507.37 2431.96,1507.37 2431.96,1395.11 2417.32,1395.11 2417.32,1185.23 2412.44,1185.23 2412.44,1136.42 2402.67,1136.42 2402.67,726.43 2412.44,726.43 2412.44,711.79 2417.32,711.79 2417.32,628.81 2431.96,628.81 2431.96,565.36 2446.6,565.36 2446.6,501.91 2461.24,501.91 2461.24,487.27 2466.12,487.27 2466.12,472.62 2480.77,472.62 2480.77,453.1 2495.41,453.1 2495.41,423.81 2510.05,423.81 2510.05,389.65 2529.58,389.65 2529.58,375.01 2544.22,375.01 2544.22,360.36 2558.86,360.36 2558.86,340.84 2573.5,340.84 2573.5,326.2 2588.15,326.2 2588.15,311.55 2607.67,311.55 2607.67,296.91 2622.31,296.91 2622.31,282.27 2636.95,282.27 2636.95,262.75 2651.6,262.75 2651.6,248.1 2685.76,248.1 2685.76,233.46 2719.93,233.46 2719.93,213.94 2749.22,213.94 2749.22,199.3 2778.5,199.3 2778.5,184.65 2876.12,184.65 2876.12,170.01 2988.38,170.01 2988.38,184.65 3066.47,184.65 3066.47,199.3 3115.28,199.3 3115.28,213.94 3164.09,213.94 3164.09,228.58 3178.73,228.58 3178.73,233.46 3193.37,233.46 3193.37,248.1 3212.9,248.1 3212.9,262.75 3227.54,262.75 3227.54,277.39 3256.83,277.39 3256.83,282.27 3261.71,282.27 3261.71,292.03 3276.35,292.03 3276.35,311.55 3290.99,311.55 3290.99,326.2 3305.64,326.2 3305.64,345.72 3325.16,345.72 3325.16,360.36 3339.8,360.36 3339.8,389.65 3354.44,389.65 3354.44,409.17 3369.09,409.17 3369.09,438.46 3388.61,438.46 3388.61,453.1 3403.25,453.1 3403.25,501.91 3417.9,501.91 3417.9,536.07 3432.54,536.07 3432.54,565.36 3437.42,565.36 3437.42,599.53 3447.18,599.53 3447.18,614.17 3452.06,614.17 3452.06,721.55 3466.7,721.55 3466.7,741.07 3578.96,741.07 3578.96,755.71 3691.22,755.71 3691.22,770.36 3735.15,770.36 3735.15,775.24 3740.03,775.24 3740.03,785 3754.68,785 3754.68,789.88 3769.32,789.88 3769.32,804.52 3798.6,804.52 3798.6,819.17 3832.77,819.17 3832.77,833.81 3847.41,833.81 3847.41,853.33 3881.58,853.33 3881.58,867.97 3896.22,867.97 3896.22,882.62 3910.86,882.62 3910.86,902.14 3925.51,902.14 3925.51,916.78 3945.03,916.78 3945.03,931.43 3959.67,931.43 3959.67,965.59 3974.32,965.59 3974.32,980.23 3988.96,980.23 3988.96,994.88 3993.84,994.88 3993.84,1009.52 4008.48,1009.52 4008.48,1043.69 4023.12,1043.69 4023.12,1077.85 4037.77,1077.85 4037.77,1121.78 4042.65,1121.78 4042.65,1155.95 4052.41,1155.95 4052.41,1185.23 4057.29,1185.23 4057.29,1297.49 4052.41,1297.49 4052.41,1312.13 4042.65,1312.13 4042.65,1360.94 4023.12,1360.94 4023.12,1424.39 4008.48,1424.39 4008.48,1458.56 3993.84,1458.56 3993.84,1473.2 3974.32,1473.2 3974.32,1507.37 3959.67,1507.37 3959.67,1536.65 3945.03,1536.65 3945.03,1556.18 3930.39,1556.18 3930.39,1570.82 3910.86,1570.82 3910.86,1585.46 3896.22,1585.46 3896.22,1600.1 3881.58,1600.1 "/>
    <polygon class="fil0 str0" points="2129.34,1092.49 2109.82,1092.49 2109.82,1282.85 2100.06,1282.85 2100.06,1312.13 2095.18,1312.13 2095.18,1487.84 2065.89,1487.84 2065.89,867.97 2051.25,867.97 2051.25,741.07 2046.37,741.07 2046.37,711.79 2036.61,711.79 2036.61,706.9 2031.73,706.9 2031.73,628.81 2017.09,628.81 2017.09,580 2002.44,580 2002.44,536.07 1987.8,536.07 1987.8,516.55 1982.92,516.55 1982.92,501.91 1973.16,501.91 1973.16,487.27 1968.28,487.27 1968.28,472.62 1953.63,472.62 1953.63,438.46 1938.99,438.46 1938.99,423.81 1924.35,423.81 1924.35,409.17 1919.47,409.17 1919.47,404.29 1904.83,404.29 1904.83,389.65 1890.18,389.65 1890.18,375.01 1875.54,375.01 1875.54,355.48 1860.9,355.48 1860.9,340.84 1846.25,340.84 1846.25,326.2 1826.73,326.2 1826.73,311.55 1797.44,311.55 1797.44,296.91 1763.28,296.91 1763.28,277.39 1729.11,277.39 1729.11,262.75 1665.66,262.75 1665.66,248.1 1524.12,248.1 1524.12,262.75 1460.67,262.75 1460.67,277.39 1411.86,277.39 1411.86,296.91 1382.57,296.91 1382.57,311.55 1348.41,311.55 1348.41,326.2 1333.76,326.2 1333.76,340.84 1314.24,340.84 1314.24,355.48 1299.6,355.48 1299.6,360.36 1284.95,360.36 1284.95,375.01 1270.31,375.01 1270.31,389.65 1250.79,389.65 1250.79,404.29 1236.14,404.29 1236.14,423.81 1221.5,423.81 1221.5,438.46 1206.86,438.46 1206.86,453.1 1201.98,453.1 1201.98,467.74 1187.34,467.74 1187.34,487.27 1172.69,487.27 1172.69,516.55 1158.05,516.55 1158.05,550.72 1143.41,550.72 1143.41,580 1128.77,580 1128.77,614.17 1109.24,614.17 1109.24,677.62 1094.6,677.62 1094.6,711.79 1123.88,711.79 1123.88,726.43 1143.41,726.43 1143.41,741.07 1172.69,741.07 1172.69,755.71 1206.86,755.71 1206.86,775.24 1221.5,775.24 1221.5,789.88 1250.79,789.88 1250.79,804.52 1270.31,804.52 1270.31,819.17 1284.95,819.17 1284.95,824.05 1299.6,824.05 1299.6,838.69 1314.24,838.69 1314.24,853.33 1333.76,853.33 1333.76,867.97 1348.41,867.97 1348.41,882.62 1363.05,882.62 1363.05,887.5 1377.69,887.5 1377.69,897.26 1382.57,897.26 1382.57,902.14 1397.21,902.14 1397.21,916.78 1411.86,916.78 1411.86,931.43 1431.38,931.43 1431.38,946.07 1446.02,946.07 1446.02,965.59 1460.67,965.59 1460.67,980.23 1475.31,980.23 1475.31,994.88 1494.83,994.88 1494.83,1009.52 1509.47,1009.52 1509.47,1029.04 1524.12,1029.04 1524.12,1043.69 1538.76,1043.69 1538.76,1058.33 1553.4,1058.33 1553.4,1072.97 1558.28,1072.97 1558.28,1077.85 1572.93,1077.85 1572.93,1092.49 1587.57,1092.49 1587.57,1107.14 1602.21,1107.14 1602.21,1136.42 1616.85,1136.42 1616.85,1141.3 1621.73,1141.3 1621.73,1155.95 1636.38,1155.95 1636.38,1170.59 1651.02,1170.59 1651.02,1204.75 1680.3,1204.75 1680.3,1219.4 1685.19,1219.4 1685.19,1234.04 1699.83,1234.04 1699.83,1268.21 1714.47,1268.21 1714.47,1282.85 1729.11,1282.85 1729.11,1312.13 1733.99,1312.13 1733.99,1317.01 1743.76,1317.01 1743.76,1331.66 1748.64,1331.66 1748.64,1346.3 1763.28,1346.3 1763.28,1360.94 1777.92,1360.94 1777.92,1395.11 1792.56,1395.11 1792.56,1409.75 1797.44,1409.75 1797.44,1424.39 1807.21,1424.39 1807.21,1443.92 1812.09,1443.92 1812.09,1458.56 1826.73,1458.56 1826.73,1487.84 1841.37,1487.84 1841.37,1522.01 1860.9,1522.01 1860.9,1551.3 1875.54,1551.3 1875.54,1585.46 1890.18,1585.46 1890.18,1614.75 1904.83,1614.75 1904.83,1663.56 1924.35,1663.56 1924.35,1697.72 1938.99,1697.72 1938.99,1746.53 1953.63,1746.53 1953.63,1809.98 1968.28,1809.98 1968.28,1853.91 1973.16,1853.91 1973.16,1902.72 1982.92,1902.72 1982.92,1922.24 1973.16,1922.24 1973.16,1951.53 1968.28,1951.53 1968.28,1966.17 1953.63,1966.17 1953.63,2014.98 1938.99,2014.98 1938.99,2029.62 1924.35,2029.62 1924.35,2049.15 1919.47,2049.15 1919.47,2058.91 1904.83,2058.91 1904.83,2078.43 1890.18,2078.43 1890.18,2093.07 1860.9,2093.07 1860.9,2097.95 1856.02,2097.95 1856.02,2107.72 1841.37,2107.72 1841.37,2112.6 1826.73,2112.6 1826.73,2127.24 1714.47,2127.24 1714.47,2141.88 1699.83,2141.88 1699.83,2127.24 1572.93,2127.24 1572.93,2122.36 1538.76,2122.36 1538.76,2112.6 1509.47,2112.6 1509.47,2107.72 1446.02,2107.72 1446.02,2093.07 1348.41,2093.07 1348.41,2078.43 1221.5,2078.43 1221.5,2063.79 870.08,2063.79 870.08,2078.43 757.82,2078.43 757.82,2093.07 694.37,2093.07 694.37,2112.6 650.44,2112.6 650.44,2127.24 616.27,2127.24 616.27,2141.88 586.99,2141.88 586.99,2156.52 567.46,2156.52 567.46,2171.17 552.82,2171.17 552.82,2176.05 538.18,2176.05 538.18,2190.69 518.66,2190.69 518.66,2205.33 504.01,2205.33 504.01,2219.98 489.37,2219.98 489.37,2239.5 474.73,2239.5 474.73,2254.14 469.85,2254.14 469.85,2268.78 455.2,2268.78 455.2,2283.43 440.56,2283.43 440.56,2317.59 425.92,2317.59 425.92,2366.4 411.28,2366.4 411.28,2415.21 406.4,2415.21 406.4,2429.85 396.63,2429.85 396.63,2586.04 411.28,2586.04 411.28,2669.01 425.92,2669.01 425.92,2712.94 440.56,2712.94 440.56,2747.11 455.2,2747.11 455.2,2761.75 474.73,2761.75 474.73,2795.92 489.37,2795.92 489.37,2810.56 504.01,2810.56 504.01,2825.2 518.66,2825.2 518.66,2844.73 538.18,2844.73 538.18,2859.37 552.82,2859.37 552.82,2874.01 586.99,2874.01 586.99,2888.65 601.63,2888.65 601.63,2908.18 572.35,2908.18 572.35,2903.3 552.82,2903.3 552.82,2893.54 538.18,2893.54 538.18,2888.65 523.54,2888.65 523.54,2874.01 504.01,2874.01 504.01,2859.37 489.37,2859.37 489.37,2839.85 474.73,2839.85 474.73,2825.2 460.09,2825.2 460.09,2810.56 440.56,2810.56 440.56,2795.92 425.92,2795.92 425.92,2781.28 411.28,2781.28 411.28,2747.11 396.63,2747.11 396.63,2732.47 377.11,2732.47 377.11,2698.3 362.47,2698.3 362.47,2649.49 347.83,2649.49 347.83,2620.21 342.94,2620.21 342.94,2586.04 333.18,2586.04 333.18,2571.4 328.3,2571.4 328.3,2415.21 333.18,2415.21 333.18,2381.04 342.94,2381.04 342.94,2332.24 362.47,2332.24 362.47,2288.31 377.11,2288.31 377.11,2254.14 391.75,2254.14 391.75,2219.98 406.4,2219.98 406.4,2205.33 425.92,2205.33 425.92,2176.05 440.56,2176.05 440.56,2156.52 455.2,2156.52 455.2,2141.88 474.73,2141.88 474.73,2127.24 489.37,2127.24 489.37,2112.6 504.01,2112.6 504.01,2107.72 518.66,2107.72 518.66,2093.07 538.18,2093.07 538.18,2078.43 567.46,2078.43 567.46,2063.79 601.63,2063.79 601.63,2044.26 616.27,2044.26 616.27,2029.62 650.44,2029.62 650.44,2014.98 694.37,2014.98 694.37,2000.34 728.53,2000.34 728.53,1995.45 743.18,1995.45 743.18,1985.69 791.99,1985.69 791.99,1980.81 855.44,1980.81 855.44,1966.17 1143.41,1966.17 1143.41,1980.81 1255.67,1980.81 1255.67,1985.69 1270.31,1985.69 1270.31,1995.45 1348.41,1995.45 1348.41,2000.34 1382.57,2000.34 1382.57,2014.98 1446.02,2014.98 1446.02,2029.62 1558.28,2029.62 1558.28,2044.26 1621.73,2044.26 1621.73,2049.15 1636.38,2049.15 1636.38,2063.79 1826.73,2063.79 1826.73,2044.26 1856.02,2044.26 1856.02,2029.62 1875.54,2029.62 1875.54,2014.98 1890.18,2014.98 1890.18,2000.34 1904.83,2000.34 1904.83,1853.91 1890.18,1853.91 1890.18,1824.62 1875.54,1824.62 1875.54,1809.98 1856.02,1809.98 1856.02,1790.46 1812.09,1790.46 1812.09,1775.82 1255.67,1775.82 1255.67,1761.17 1079.96,1761.17 1079.96,1746.53 953.05,1746.53 953.05,1741.65 918.89,1741.65 918.89,1727.01 870.08,1727.01 870.08,1712.36 840.79,1712.36 840.79,1697.72 791.99,1697.72 791.99,1683.08 757.82,1683.08 757.82,1663.56 743.18,1663.56 743.18,1648.91 713.89,1648.91 713.89,1634.27 699.25,1634.27 699.25,1629.39 694.37,1629.39 694.37,1619.63 679.72,1619.63 679.72,1614.75 665.08,1614.75 665.08,1600.1 650.44,1600.1 650.44,1585.46 630.92,1585.46 630.92,1570.82 616.27,1570.82 616.27,1551.3 601.63,1551.3 601.63,1522.01 582.11,1522.01 582.11,1507.37 567.46,1507.37 567.46,1487.84 552.82,1487.84 552.82,1458.56 538.18,1458.56 538.18,1424.39 518.66,1424.39 518.66,1395.11 504.01,1395.11 504.01,1346.3 489.37,1346.3 489.37,1282.85 474.73,1282.85 474.73,1107.14 489.37,1107.14 489.37,1058.33 504.01,1058.33 504.01,994.88 518.66,994.88 518.66,980.23 538.18,980.23 538.18,946.07 552.82,946.07 552.82,916.78 572.35,916.78 572.35,902.14 586.99,902.14 586.99,887.5 601.63,887.5 601.63,867.97 616.27,867.97 616.27,853.33 635.8,853.33 635.8,838.69 650.44,838.69 650.44,824.05 665.08,824.05 665.08,819.17 679.72,819.17 679.72,804.52 694.37,804.52 694.37,789.88 728.53,789.88 728.53,775.24 743.18,775.24 743.18,770.36 757.82,770.36 757.82,760.6 772.46,760.6 772.46,755.71 806.63,755.71 806.63,741.07 855.44,741.07 855.44,726.43 918.89,726.43 918.89,721.55 967.7,721.55 967.7,711.79 1079.96,711.79 1079.96,628.81 1094.6,628.81 1094.6,565.36 1109.24,565.36 1109.24,516.55 1123.88,516.55 1123.88,487.27 1128.77,487.27 1128.77,472.62 1143.41,472.62 1143.41,453.1 1158.05,453.1 1158.05,423.81 1172.69,423.81 1172.69,389.65 1192.22,389.65 1192.22,375.01 1206.86,375.01 1206.86,360.36 1221.5,360.36 1221.5,340.84 1236.14,340.84 1236.14,326.2 1250.79,326.2 1250.79,311.55 1255.67,311.55 1255.67,296.91 1284.95,296.91 1284.95,282.27 1304.48,282.27 1304.48,267.63 1314.24,267.63 1314.24,248.1 1348.41,248.1 1348.41,228.58 1363.05,228.58 1363.05,213.94 1397.21,213.94 1397.21,199.3 1446.02,199.3 1446.02,184.65 1538.76,184.65 1538.76,170.01 1665.66,170.01 1665.66,184.65 1743.76,184.65 1743.76,199.3 1797.44,199.3 1797.44,213.94 1826.73,213.94 1826.73,228.58 1860.9,228.58 1860.9,248.1 1875.54,248.1 1875.54,262.75 1904.83,262.75 1904.83,282.27 1919.47,282.27 1919.47,296.91 1938.99,296.91 1938.99,311.55 1953.63,311.55 1953.63,326.2 1968.28,326.2 1968.28,345.72 1987.8,345.72 1987.8,360.36 2002.44,360.36 2002.44,375.01 2017.09,375.01 2017.09,409.17 2031.73,409.17 2031.73,438.46 2046.37,438.46 2046.37,453.1 2065.89,453.1 2065.89,487.27 2080.54,487.27 2080.54,516.55 2095.18,516.55 2095.18,550.72 2100.06,550.72 2100.06,580 2114.7,580 2114.7,643.45 2129.34,643.45 "/>
    <polygon class="fil0 str0" points="870.08,3098.53 884.72,3098.53 884.72,3083.89 889.6,3083.89 889.6,3079.01 904.25,3079.01 904.25,3064.37 918.89,3064.37 918.89,3049.72 933.53,3049.72 933.53,3035.08 948.17,3035.08 948.17,3020.44 967.7,3020.44 967.7,3000.91 982.34,3000.91 982.34,2986.27 996.98,2986.27 996.98,2971.63 1016.51,2971.63 1016.51,2956.99 1031.15,2956.99 1031.15,2937.46 1045.79,2937.46 1045.79,2922.82 1060.43,2922.82 1060.43,2908.18 1065.31,2908.18 1065.31,2903.3 1075.08,2903.3 1075.08,2888.65 1094.6,2888.65 1094.6,2874.01 1109.24,2874.01 1109.24,2859.37 1123.88,2859.37 1123.88,2839.85 1128.77,2839.85 1128.77,2830.08 1138.53,2830.08 1138.53,2825.2 1143.41,2825.2 1143.41,2810.56 1158.05,2810.56 1158.05,2795.92 1172.69,2795.92 1172.69,2776.39 1187.34,2776.39 1187.34,2747.11 1206.86,2747.11 1206.86,2732.47 1221.5,2732.47 1221.5,2717.82 1236.14,2717.82 1236.14,2698.3 1255.67,2698.3 1255.67,2683.66 1270.31,2683.66 1270.31,2669.01 1284.95,2669.01 1284.95,2654.37 1299.6,2654.37 1299.6,2634.85 1319.12,2634.85 1319.12,2620.21 1348.41,2620.21 1348.41,2600.68 1363.05,2600.68 1363.05,2586.04 1382.57,2586.04 1382.57,2571.4 1397.21,2571.4 1397.21,2556.76 1411.86,2556.76 1411.86,2542.11 1426.5,2542.11 1426.5,2537.23 1441.14,2537.23 1441.14,2522.59 1460.67,2522.59 1460.67,2507.95 1475.31,2507.95 1475.31,2493.3 1489.95,2493.3 1489.95,2478.66 1494.83,2478.66 1494.83,2473.78 1524.12,2473.78 1524.12,2459.14 1538.76,2459.14 1538.76,2444.5 1558.28,2444.5 1558.28,2429.85 1587.57,2429.85 1587.57,2410.33 1607.09,2410.33 1607.09,2400.57 1616.85,2400.57 1616.85,2395.69 1636.38,2395.69 1636.38,2381.04 1651.02,2381.04 1651.02,2366.4 1685.19,2366.4 1685.19,2351.76 1699.83,2351.76 1699.83,2332.24 1729.11,2332.24 1729.11,2317.59 1763.28,2317.59 1763.28,2298.07 1777.92,2298.07 1777.92,2283.43 1812.09,2283.43 1812.09,2268.78 1856.02,2268.78 1856.02,2254.14 1890.18,2254.14 1890.18,2239.5 1924.35,2239.5 1924.35,2234.62 1938.99,2234.62 1938.99,2219.98 2065.89,2219.98 2065.89,2234.62 2100.06,2234.62 2100.06,2239.5 2114.7,2239.5 2114.7,2268.78 2143.99,2268.78 2143.99,2288.31 2158.63,2288.31 2158.63,2317.59 2178.15,2317.59 2178.15,2332.24 2192.8,2332.24 2192.8,2366.4 2207.44,2366.4 2207.44,2395.69 2222.08,2395.69 2222.08,2410.33 2226.96,2410.33 2226.96,2507.95 2241.6,2507.95 2241.6,3015.56 2226.96,3015.56 2226.96,3142.46 2207.44,3142.46 2207.44,3240.08 2192.8,3240.08 2192.8,3303.53 2178.15,3303.53 2178.15,3352.34 2173.27,3352.34 2173.27,3366.98 2163.51,3366.98 2163.51,3381.62 2158.63,3381.62 2158.63,3415.79 2143.99,3415.79 2143.99,3464.6 2129.34,3464.6 2129.34,3513.41 2114.7,3513.41 2114.7,3542.69 2100.06,3542.69 2100.06,3557.33 2095.18,3557.33 2095.18,3576.86 2080.54,3576.86 2080.54,3606.14 2065.89,3606.14 2065.89,3620.79 2046.37,3620.79 2046.37,3654.95 2031.73,3654.95 2031.73,3669.59 2017.09,3669.59 2017.09,3698.88 2002.44,3698.88 2002.44,3718.4 1987.8,3718.4 1987.8,3733.05 1968.28,3733.05 1968.28,3747.69 1953.63,3747.69 1953.63,3767.21 1938.99,3767.21 1938.99,3781.85 1924.35,3781.85 1924.35,3796.5 1904.83,3796.5 1904.83,3816.02 1890.18,3816.02 1890.18,3830.66 1875.54,3830.66 1875.54,3845.31 1841.37,3845.31 1841.37,3859.95 1826.73,3859.95 1826.73,3874.59 1792.56,3874.59 1792.56,3894.11 1763.28,3894.11 1763.28,3908.76 1733.99,3908.76 1733.99,3894.11 1714.47,3894.11 1714.47,3845.31 1748.64,3845.31 1748.64,3830.66 1777.92,3830.66 1777.92,3816.02 1812.09,3816.02 1812.09,3796.5 1826.73,3796.5 1826.73,3781.85 1841.37,3781.85 1841.37,3767.21 1860.9,3767.21 1860.9,3752.57 1875.54,3752.57 1875.54,3747.69 1890.18,3747.69 1890.18,3733.05 1904.83,3733.05 1904.83,3718.4 1924.35,3718.4 1924.35,3703.76 1938.99,3703.76 1938.99,3684.24 1953.63,3684.24 1953.63,3654.95 1968.28,3654.95 1968.28,3635.43 1982.92,3635.43 1982.92,3606.14 2002.44,3606.14 2002.44,3591.5 2017.09,3591.5 2017.09,3557.33 2031.73,3557.33 2031.73,3528.05 2046.37,3528.05 2046.37,3508.53 2051.25,3508.53 2051.25,3479.24 2065.89,3479.24 2065.89,3464.6 2080.54,3464.6 2080.54,3415.79 2095.18,3415.79 2095.18,3381.62 2100.06,3381.62 2100.06,3366.98 2109.82,3366.98 2109.82,3352.34 2114.7,3352.34 2114.7,3318.17 2129.34,3318.17 2129.34,3259.6 2143.99,3259.6 2143.99,3142.46 2158.63,3142.46 2158.63,3079.01 2163.51,3079.01 2163.51,3035.08 2173.27,3035.08 2173.27,3015.56 2178.15,3015.56 2178.15,2844.73 2192.8,2844.73 2192.8,2444.5 2178.15,2444.5 2178.15,2410.33 2173.27,2410.33 2173.27,2395.69 2163.51,2395.69 2163.51,2381.04 2158.63,2381.04 2158.63,2366.4 2065.89,2366.4 2065.89,2381.04 2051.25,2381.04 2051.25,2395.69 2031.73,2395.69 2031.73,2410.33 2017.09,2410.33 2017.09,2429.85 2002.44,2429.85 2002.44,2459.14 1987.8,2459.14 1987.8,2493.3 1982.92,2493.3 1982.92,2507.95 1973.16,2507.95 1973.16,2522.59 1968.28,2522.59 1968.28,2620.21 1953.63,2620.21 1953.63,2747.11 1938.99,2747.11 1938.99,2888.65 1924.35,2888.65 1924.35,2986.27 1919.47,2986.27 1919.47,3015.56 1909.7,3015.56 1909.7,3049.72 1904.83,3049.72 1904.83,3127.82 1890.18,3127.82 1890.18,3210.79 1875.54,3210.79 1875.54,3259.6 1860.9,3259.6 1860.9,3303.53 1846.25,3303.53 1846.25,3318.17 1826.73,3318.17 1826.73,3352.34 1812.09,3352.34 1812.09,3386.5 1797.44,3386.5 1797.44,3401.15 1777.92,3401.15 1777.92,3430.43 1763.28,3430.43 1763.28,3449.96 1748.64,3449.96 1748.64,3464.6 1733.99,3464.6 1733.99,3479.24 1714.47,3479.24 1714.47,3493.88 1685.19,3493.88 1685.19,3508.53 1680.3,3508.53 1680.3,3513.41 1665.66,3513.41 1665.66,3523.17 1651.02,3523.17 1651.02,3542.69 1616.85,3542.69 1616.85,3557.33 1587.57,3557.33 1587.57,3571.98 1558.28,3571.98 1558.28,3591.5 1524.12,3591.5 1524.12,3606.14 1460.67,3606.14 1460.67,3620.79 1236.14,3620.79 1236.14,3606.14 1187.34,3606.14 1187.34,3591.5 1158.05,3591.5 1158.05,3571.98 1128.77,3571.98 1128.77,3557.33 1094.6,3557.33 1094.6,3542.69 1060.43,3542.69 1060.43,3528.05 1045.79,3528.05 1045.79,3513.41 1031.15,3513.41 1031.15,3493.88 1011.62,3493.88 1011.62,3479.24 996.98,3479.24 996.98,3464.6 982.34,3464.6 982.34,3445.07 967.7,3445.07 967.7,3415.79 948.17,3415.79 948.17,3401.15 933.53,3401.15 933.53,3366.98 918.89,3366.98 918.89,3337.69 904.25,3337.69 904.25,3288.89 884.72,3288.89 884.72,3240.08 870.08,3240.08 "/>
    <polygon class="fil0 str0" points="2719.93,3528.05 2719.93,3508.53 2705.29,3508.53 2705.29,3493.88 2685.76,3493.88 2685.76,3479.24 2671.12,3479.24 2671.12,3464.6 2656.48,3464.6 2656.48,3430.43 2636.95,3430.43 2636.95,3415.79 2622.31,3415.79 2622.31,3401.15 2607.67,3401.15 2607.67,3366.98 2593.03,3366.98 2593.03,3318.17 2573.5,3318.17 2573.5,3288.89 2558.86,3288.89 2558.86,3205.91 2544.22,3205.91 2544.22,3161.98 2539.34,3161.98 2539.34,3127.82 2529.58,3127.82 2529.58,3079.01 2524.69,3079.01 2524.69,2761.75 2510.05,2761.75 2510.05,2493.3 2495.41,2493.3 2495.41,2444.5 2480.77,2444.5 2480.77,2410.33 2466.12,2410.33 2466.12,2395.69 2446.6,2395.69 2446.6,2381.04 2397.79,2381.04 2397.79,2366.4 2368.51,2366.4 2368.51,2288.31 2383.15,2288.31 2383.15,2268.78 2397.79,2268.78 2397.79,2254.14 2417.32,2254.14 2417.32,2239.5 2431.96,2239.5 2431.96,2224.86 2446.6,2224.86 2446.6,2219.98 2495.41,2219.98 2495.41,2205.33 2510.05,2205.33 2510.05,2219.98 2573.5,2219.98 2573.5,2224.86 2588.15,2224.86 2588.15,2234.62 2607.67,2234.62 2607.67,2239.5 2622.31,2239.5 2622.31,2254.14 2656.48,2254.14 2656.48,2268.78 2685.76,2268.78 2685.76,2283.43 2700.41,2283.43 2700.41,2288.31 2715.05,2288.31 2715.05,2298.07 2719.93,2298.07 2719.93,2302.95 2734.57,2302.95 2734.57,2317.59 2749.22,2317.59 2749.22,2332.24 2783.38,2332.24 2783.38,2351.76 2798.02,2351.76 2798.02,2366.4 2827.31,2366.4 2827.31,2381.04 2841.95,2381.04 2841.95,2395.69 2861.48,2395.69 2861.48,2410.33 2876.12,2410.33 2876.12,2429.85 2890.76,2429.85 2890.76,2444.5 2924.93,2444.5 2924.93,2459.14 2939.57,2459.14 2939.57,2478.66 2954.21,2478.66 2954.21,2493.3 2973.74,2493.3 2973.74,2507.95 2988.38,2507.95 2988.38,2522.59 3003.02,2522.59 3003.02,2542.11 3022.54,2542.11 3022.54,2556.76 3037.19,2556.76 3037.19,2571.4 3051.83,2571.4 3051.83,2590.92 3066.47,2590.92 3066.47,2605.56 3081.11,2605.56 3081.11,2620.21 3100.64,2620.21 3100.64,2634.85 3115.28,2634.85 3115.28,2654.37 3129.92,2654.37 3129.92,2669.01 3149.45,2669.01 3149.45,2683.66 3164.09,2683.66 3164.09,2698.3 3178.73,2698.3 3178.73,2712.94 3193.37,2712.94 3193.37,2717.82 3198.26,2717.82 3198.26,2727.59 3208.02,2727.59 3208.02,2732.47 3212.9,2732.47 3212.9,2747.11 3227.54,2747.11 3227.54,2761.75 3242.18,2761.75 3242.18,2776.39 3256.83,2776.39 3256.83,2781.28 3261.71,2781.28 3261.71,2795.92 3276.35,2795.92 3276.35,2810.56 3290.99,2810.56 3290.99,2825.2 3305.64,2825.2 3305.64,2844.73 3325.16,2844.73 3325.16,2859.37 3339.8,2859.37 3339.8,2874.01 3354.44,2874.01 3354.44,2893.54 3369.09,2893.54 3369.09,2908.18 3383.73,2908.18 3383.73,2922.82 3403.25,2922.82 3403.25,2937.46 3417.9,2937.46 3417.9,2956.99 3432.54,2956.99 3432.54,2971.63 3447.18,2971.63 3447.18,2986.27 3466.7,2986.27 3466.7,3000.91 3481.35,3000.91 3481.35,3020.44 3495.99,3020.44 3495.99,3035.08 3515.51,3035.08 3515.51,3049.72 3530.16,3049.72 3530.16,3064.37 3544.8,3064.37 3544.8,3079.01 3564.32,3079.01 3564.32,3113.17 3574.08,3113.17 3574.08,3127.82 3564.32,3127.82 3564.32,3191.27 3559.44,3191.27 3559.44,3269.36 3544.8,3269.36 3544.8,3352.34 3530.16,3352.34 3530.16,3386.5 3515.51,3386.5 3515.51,3415.79 3495.99,3415.79 3495.99,3445.07 3481.35,3445.07 3481.35,3479.24 3466.7,3479.24 3466.7,3493.88 3452.06,3493.88 3452.06,3508.53 3447.18,3508.53 3447.18,3513.41 3437.42,3513.41 3437.42,3528.05 3417.9,3528.05 3417.9,3542.69 3403.25,3542.69 3403.25,3562.22 3388.61,3562.22 3388.61,3576.86 3373.97,3576.86 3373.97,3591.5 3339.8,3591.5 3339.8,3606.14 3325.16,3606.14 3325.16,3620.79 3320.28,3620.79 3320.28,3625.67 3290.99,3625.67 3290.99,3635.43 3276.35,3635.43 3276.35,3640.31 3256.83,3640.31 3256.83,3654.95 3193.37,3654.95 3193.37,3669.59 2988.38,3669.59 2988.38,3654.95 2939.57,3654.95 2939.57,3640.31 2910.28,3640.31 2910.28,3635.43 2895.64,3635.43 2895.64,3625.67 2890.76,3625.67 2890.76,3620.79 2846.83,3620.79 2846.83,3606.14 2812.67,3606.14 2812.67,3591.5 2798.02,3591.5 2798.02,3576.86 2783.38,3576.86 2783.38,3571.98 2768.74,3571.98 2768.74,3557.33 2749.22,3557.33 2749.22,3542.69 2734.57,3542.69 2734.57,3528.05 "/>
    <polygon class="fil2" points="3020.1,1243.81 3020.1,1146.19 3117.71,1146.19 3117.71,1243.81 "/>
    <polygon class="fil3" points="3901.1,2922.82 3901.1,2927.7 3886.46,2927.7 3886.46,2942.34 3852.29,2942.34 3852.29,2956.99 3837.65,2956.99 3837.65,2971.63 3788.84,2971.63 3788.84,2986.27 3759.56,2986.27 3759.56,2991.15 3740.03,2991.15 3740.03,3000.91 3725.39,3000.91 3725.39,3005.8 3661.94,3005.8 3661.94,3020.44 3598.49,3020.44 3598.49,3035.08 3583.84,3035.08 3583.84,3196.15 3569.2,3196.15 3569.2,3274.24 3549.68,3274.24 3549.68,3240.08 3564.32,3240.08 3564.32,3161.98 3569.2,3161.98 3569.2,3098.53 3578.96,3098.53 3578.96,3083.89 3569.2,3083.89 3569.2,3049.72 3549.68,3049.72 3549.68,3035.08 3535.04,3035.08 3535.04,3020.44 3520.39,3020.44 3520.39,3005.8 3500.87,3005.8 3500.87,2991.15 3486.23,2991.15 3486.23,2971.63 3471.58,2971.63 3471.58,2956.99 3452.06,2956.99 3452.06,2942.34 3437.42,2942.34 3437.42,2927.7 3422.78,2927.7 3422.78,2908.18 3408.13,2908.18 3408.13,2893.54 3388.61,2893.54 3388.61,2878.89 3373.97,2878.89 3373.97,2864.25 3359.32,2864.25 3359.32,2844.73 3344.68,2844.73 3344.68,2830.08 3330.04,2830.08 3330.04,2815.44 3310.51,2815.44 3310.51,2795.92 3295.87,2795.92 3295.87,2781.27 3281.23,2781.27 3281.23,2766.63 3266.59,2766.63 3266.59,2751.99 3261.71,2751.99 3261.71,2747.11 3247.06,2747.11 3247.06,2732.47 3232.42,2732.47 3232.42,2717.82 3217.78,2717.82 3217.78,2703.18 3212.9,2703.18 3212.9,2698.3 3203.14,2698.3 3203.14,2688.54 3198.25,2688.54 3198.25,2683.66 3183.61,2683.66 3183.61,2669.01 3168.97,2669.01 3168.97,2654.37 3154.33,2654.37 3154.33,2639.73 3134.8,2639.73 3134.8,2625.09 3120.16,2625.09 3120.16,2605.56 3105.52,2605.56 3105.52,2590.92 3085.99,2590.92 3085.99,2576.28 3071.35,2576.28 3071.35,2561.64 3056.71,2561.64 3056.71,2542.11 3042.07,2542.11 3042.07,2527.47 3027.42,2527.47 3027.42,2512.83 3007.9,2512.83 3007.9,2493.3 2993.26,2493.3 2993.26,2478.66 2978.62,2478.66 2978.62,2464.02 2959.09,2464.02 2959.09,2449.38 2944.45,2449.38 2944.45,2429.85 2929.81,2429.85 2929.81,2415.21 2895.64,2415.21 2895.64,2400.57 2881,2400.57 2881,2381.04 2866.36,2381.04 2866.36,2366.4 2846.83,2366.4 2846.83,2351.76 2832.19,2351.76 2832.19,2337.12 2802.9,2337.12 2802.9,2322.47 2788.26,2322.47 2788.26,2302.95 2754.09,2302.95 2754.09,2288.31 2739.45,2288.31 2739.45,2273.66 2724.81,2273.66 2724.81,2268.78 2719.93,2268.78 2719.93,2259.02 2705.29,2259.02 2705.29,2254.14 2690.64,2254.14 2690.64,2239.5 2661.36,2239.5 2661.36,2224.86 2627.19,2224.86 2627.19,2210.21 2612.55,2210.21 2612.55,2205.33 2593.03,2205.33 2593.03,2195.57 2578.38,2195.57 2578.38,2190.69 2514.93,2190.69 2514.93,2176.05 2500.29,2176.05 2500.29,2190.69 2451.48,2190.69 2451.48,2195.57 2436.84,2195.57 2436.84,2210.21 2422.2,2210.21 2422.2,2224.86 2402.67,2224.86 2402.67,2239.5 2388.03,2239.5 2388.03,2259.02 2373.39,2259.02 2373.39,2337.12 2339.22,2337.12 2339.22,2351.76 2324.58,2351.76 2324.58,2381.04 2309.94,2381.04 2309.94,2449.38 2295.29,2449.38 2295.29,2464.02 2290.41,2464.02 2290.41,3083.89 2275.77,3083.89 2275.77,3274.24 2261.13,3274.24 2261.13,3386.5 2246.48,3386.5 2246.48,3464.6 2226.96,3464.6 2226.96,3528.05 2212.32,3528.05 2212.32,3591.5 2197.68,3591.5 2197.68,3640.31 2183.03,3640.31 2183.03,3689.12 2168.39,3689.12 2168.39,3703.76 2163.51,3703.76 2163.51,3723.28 2148.87,3723.28 2148.87,3752.57 2134.22,3752.57 2134.22,3801.38 2119.58,3801.38 2119.58,3830.66 2100.06,3830.66 2100.06,3850.19 2085.42,3850.19 2085.42,3879.47 2070.77,3879.47 2070.77,3908.76 2051.25,3908.76 2051.25,3928.28 2036.61,3928.28 2036.61,3957.56 2021.97,3957.56 2021.97,3977.09 2007.32,3977.09 2007.32,4006.37 1909.7,4006.37 1909.7,3991.73 1880.42,3991.73 1880.42,3977.09 1846.25,3977.09 1846.25,3957.56 1816.97,3957.56 1816.97,3942.92 1797.44,3942.92 1797.44,3928.28 1782.8,3928.28 1782.8,3913.64 1768.16,3913.64 1768.16,3894.11 1753.52,3894.11 1753.52,3879.47 1768.16,3879.47 1768.16,3864.83 1797.44,3864.83 1797.44,3845.3 1831.61,3845.3 1831.61,3830.66 1846.25,3830.66 1846.25,3816.02 1880.42,3816.02 1880.42,3801.38 1895.06,3801.38 1895.06,3786.73 1909.7,3786.73 1909.7,3767.21 1929.23,3767.21 1929.23,3752.57 1943.87,3752.57 1943.87,3737.93 1958.51,3737.93 1958.51,3718.4 1973.16,3718.4 1973.16,3703.76 1992.68,3703.76 1992.68,3689.12 2007.32,3689.12 2007.32,3669.59 2021.97,3669.59 2021.97,3640.31 2036.61,3640.31 2036.61,3625.67 2051.25,3625.67 2051.25,3591.5 2070.77,3591.5 2070.77,3576.86 2085.42,3576.86 2085.42,3547.57 2100.06,3547.57 2100.06,3528.05 2104.94,3528.05 2104.94,3513.4 2119.58,3513.4 2119.58,3484.12 2134.22,3484.12 2134.22,3435.31 2148.87,3435.31 2148.87,3386.5 2163.51,3386.5 2163.51,3352.34 2168.39,3352.34 2168.39,3337.69 2178.15,3337.69 2178.15,3323.05 2183.03,3323.05 2183.03,3274.24 2197.68,3274.24 2197.68,3210.79 2212.32,3210.79 2212.32,3113.17 2231.84,3113.17 2231.84,2986.27 2246.48,2986.27 2246.48,2478.66 2231.84,2478.66 2231.84,2381.04 2226.96,2381.04 2226.96,2366.4 2212.32,2366.4 2212.32,2337.12 2197.68,2337.12 2197.68,2302.95 2183.03,2302.95 2183.03,2288.31 2163.51,2288.31 2163.51,2259.02 2148.87,2259.02 2148.87,2239.5 2119.58,2239.5 2119.58,2210.21 2104.94,2210.21 2104.94,2205.33 2070.77,2205.33 2070.77,2190.69 1943.87,2190.69 1943.87,2205.33 1929.23,2205.33 1929.23,2210.21 1895.06,2210.21 1895.06,2224.86 1860.9,2224.86 1860.9,2239.5 1816.97,2239.5 1816.97,2254.14 1782.8,2254.14 1782.8,2268.78 1768.16,2268.78 1768.16,2288.31 1733.99,2288.31 1733.99,2302.95 1704.71,2302.95 1704.71,2322.47 1690.07,2322.47 1690.07,2337.12 1655.9,2337.12 1655.9,2351.76 1641.26,2351.76 1641.26,2366.4 1621.73,2366.4 1621.73,2371.28 1611.97,2371.28 1611.97,2381.04 1592.45,2381.04 1592.45,2400.57 1563.16,2400.57 1563.16,2415.21 1543.64,2415.21 1543.64,2429.85 1529,2429.85 1529,2444.49 1499.71,2444.49 1499.71,2449.38 1494.83,2449.38 1494.83,2464.02 1480.19,2464.02 1480.19,2478.66 1465.55,2478.66 1465.55,2493.3 1446.02,2493.3 1446.02,2507.95 1431.38,2507.95 1431.38,2512.83 1416.74,2512.83 1416.74,2527.47 1402.09,2527.47 1402.09,2542.11 1387.45,2542.11 1387.45,2556.75 1367.93,2556.75 1367.93,2571.4 1353.28,2571.4 1353.28,2590.92 1324,2590.92 1324,2605.56 1304.48,2605.56 1304.48,2625.09 1289.83,2625.09 1289.83,2639.73 1275.19,2639.73 1275.19,2654.37 1260.55,2654.37 1260.55,2669.01 1241.02,2669.01 1241.02,2688.54 1226.38,2688.54 1226.38,2703.18 1211.74,2703.18 1211.74,2717.82 1192.22,2717.82 1192.22,2747.11 1177.57,2747.11 1177.57,2766.63 1162.93,2766.63 1162.93,2781.27 1148.29,2781.27 1148.29,2795.92 1143.41,2795.92 1143.41,2800.8 1133.65,2800.8 1133.65,2810.56 1128.76,2810.56 1128.76,2830.08 1114.12,2830.08 1114.12,2844.73 1099.48,2844.73 1099.48,2859.37 1079.96,2859.37 1079.96,2874.01 1070.19,2874.01 1070.19,2878.89 1065.31,2878.89 1065.31,2893.54 1050.67,2893.54 1050.67,2908.18 1036.03,2908.18 1036.03,2927.7 1021.39,2927.7 1021.39,2942.34 1001.86,2942.34 1001.86,2956.99 987.22,2956.99 987.22,2971.63 972.58,2971.63 972.58,2991.15 953.05,2991.15 953.05,3005.8 938.41,3005.8 938.41,3020.44 923.77,3020.44 923.77,3035.08 909.13,3035.08 909.13,3049.72 894.48,3049.72 894.48,3054.6 889.6,3054.6 889.6,3069.25 874.96,3069.25 874.96,2986.27 860.32,2986.27 860.32,2971.63 826.15,2971.63 826.15,2956.99 748.06,2956.99 748.06,2942.34 699.25,2942.34 699.25,2937.46 684.6,2937.46 684.6,2922.82 655.32,2922.82 655.32,2908.18 606.51,2908.18 606.51,2893.54 572.34,2893.54 572.34,2874.01 577.23,2874.01 577.23,2878.89 606.51,2878.89 606.51,2859.37 591.87,2859.37 591.87,2844.73 557.7,2844.73 557.7,2830.08 543.06,2830.08 543.06,2815.44 523.54,2815.44 523.54,2795.92 508.89,2795.92 508.89,2781.27 494.25,2781.27 494.25,2766.63 479.61,2766.63 479.61,2732.47 460.08,2732.47 460.08,2717.82 445.44,2717.82 445.44,2683.66 430.8,2683.66 430.8,2639.73 416.16,2639.73 416.16,2556.75 401.51,2556.75 401.51,2400.57 411.28,2400.57 411.28,2385.92 416.16,2385.92 416.16,2337.12 430.8,2337.12 430.8,2288.31 445.44,2288.31 445.44,2254.14 460.08,2254.14 460.08,2239.5 474.73,2239.5 474.73,2224.86 479.61,2224.86 479.61,2210.21 494.25,2210.21 494.25,2190.69 508.89,2190.69 508.89,2176.05 523.54,2176.05 523.54,2161.4 543.06,2161.4 543.06,2146.76 557.7,2146.76 557.7,2141.88 572.34,2141.88 572.34,2127.24 591.87,2127.24 591.87,2112.6 621.15,2112.6 621.15,2097.95 655.32,2097.95 655.32,2083.31 699.25,2083.31 699.25,2063.79 762.7,2063.79 762.7,2049.14 874.96,2049.14 874.96,2034.5 1226.38,2034.5 1226.38,2049.14 1353.28,2049.14 1353.28,2063.79 1450.9,2063.79 1450.9,2078.43 1514.35,2078.43 1514.35,2083.31 1543.64,2083.31 1543.64,2093.07 1577.81,2093.07 1577.81,2097.95 1704.71,2097.95 1704.71,2112.6 1719.35,2112.6 1719.35,2097.95 1831.61,2097.95 1831.61,2083.31 1846.25,2083.31 1846.25,2078.43 1860.9,2078.43 1860.9,2068.67 1865.78,2068.67 1865.78,2063.79 1895.06,2063.79 1895.06,2049.14 1909.7,2049.14 1909.7,2029.62 1924.35,2029.62 1924.35,2019.86 1929.23,2019.86 1929.23,2000.34 1943.87,2000.34 1943.87,1985.69 1958.51,1985.69 1958.51,1936.88 1973.16,1936.88 1973.16,1922.24 1978.04,1922.24 1978.04,1892.96 1987.8,1892.96 1987.8,1873.43 1978.04,1873.43 1978.04,1824.62 1973.16,1824.62 1973.16,1780.7 1958.51,1780.7 1958.51,1717.25 1943.87,1717.25 1943.87,1668.44 1929.23,1668.44 1929.23,1634.27 1909.7,1634.27 1909.7,1585.46 1895.06,1585.46 1895.06,1556.18 1880.42,1556.18 1880.42,1522.01 1865.78,1522.01 1865.78,1492.73 1846.25,1492.73 1846.25,1458.56 1831.61,1458.56 1831.61,1429.27 1816.97,1429.27 1816.97,1414.63 1812.09,1414.63 1812.09,1395.11 1802.32,1395.11 1802.32,1380.46 1797.44,1380.46 1797.44,1365.82 1782.8,1365.82 1782.8,1331.66 1768.16,1331.66 1768.16,1317.01 1753.52,1317.01 1753.52,1302.37 1748.64,1302.37 1748.64,1287.73 1738.87,1287.73 1738.87,1282.85 1733.99,1282.85 1733.99,1253.56 1719.35,1253.56 1719.35,1238.92 1704.71,1238.92 1704.71,1204.75 1690.07,1204.75 1690.07,1190.11 1685.18,1190.11 1685.18,1175.47 1655.9,1175.47 1655.9,1141.3 1641.26,1141.3 1641.26,1126.66 1626.61,1126.66 1626.61,1112.02 1621.73,1112.02 1621.73,1107.14 1607.09,1107.14 1607.09,1077.85 1592.45,1077.85 1592.45,1063.21 1577.81,1063.21 1577.81,1048.57 1563.16,1048.57 1563.16,1043.68 1558.28,1043.68 1558.28,1029.04 1543.64,1029.04 1543.64,1014.4 1529,1014.4 1529,999.76 1514.35,999.76 1514.35,980.23 1499.71,980.23 1499.71,965.59 1480.19,965.59 1480.19,950.95 1465.55,950.95 1465.55,936.31 1450.9,936.31 1450.9,916.78 1436.26,916.78 1436.26,902.14 1416.74,902.14 1416.74,887.5 1402.09,887.5 1402.09,872.85 1387.45,872.85 1387.45,867.97 1382.57,867.97 1382.57,858.21 1367.93,858.21 1367.93,853.33 1353.28,853.33 1353.28,838.69 1338.64,838.69 1338.64,824.05 1319.12,824.05 1319.12,809.4 1304.48,809.4 1304.48,794.76 1289.83,794.76 1289.83,789.88 1275.19,789.88 1275.19,775.24 1255.67,775.24 1255.67,760.59 1226.38,760.59 1226.38,745.95 1211.74,745.95 1211.74,726.43 1177.57,726.43 1177.57,711.79 1148.29,711.79 1148.29,697.14 1128.76,697.14 1128.76,682.5 1099.48,682.5 1099.48,648.33 1114.12,648.33 1114.12,584.88 1133.65,584.88 1133.65,550.72 1148.29,550.72 1148.29,521.43 1162.93,521.43 1162.93,487.27 1177.57,487.27 1177.57,457.98 1192.22,457.98 1192.22,438.46 1206.86,438.46 1206.86,423.81 1211.74,423.81 1211.74,409.17 1226.38,409.17 1226.38,394.53 1241.02,394.53 1241.02,375.01 1255.67,375.01 1255.67,360.36 1275.19,360.36 1275.19,345.72 1289.83,345.72 1289.83,331.08 1304.48,331.08 1304.48,326.2 1319.12,326.2 1319.12,311.55 1338.64,311.55 1338.64,296.91 1353.28,296.91 1353.28,282.27 1387.45,282.27 1387.45,267.63 1416.74,267.63 1416.74,248.1 1465.55,248.1 1465.55,233.46 1529,233.46 1529,218.82 1670.54,218.82 1670.54,233.46 1733.99,233.46 1733.99,248.1 1768.16,248.1 1768.16,267.63 1802.32,267.63 1802.32,282.27 1831.61,282.27 1831.61,296.91 1851.13,296.91 1851.13,311.55 1865.78,311.55 1865.78,326.2 1880.42,326.2 1880.42,345.72 1895.06,345.72 1895.06,360.36 1909.7,360.36 1909.7,375.01 1924.35,375.01 1924.35,379.89 1929.23,379.89 1929.23,394.53 1943.87,394.53 1943.87,409.17 1958.51,409.17 1958.51,443.34 1973.16,443.34 1973.16,457.98 1978.04,457.98 1978.04,472.62 1987.8,472.62 1987.8,487.27 1992.68,487.27 1992.68,506.79 2007.32,506.79 2007.32,550.72 2021.97,550.72 2021.97,599.53 2036.61,599.53 2036.61,677.62 2041.49,677.62 2041.49,682.5 2051.25,682.5 2051.25,711.79 2056.13,711.79 2056.13,838.69 2070.77,838.69 2070.77,1458.56 2100.06,1458.56 2100.06,1282.85 2104.94,1282.85 2104.94,1253.56 2114.7,1253.56 2114.7,1063.21 2134.22,1063.21 2134.22,1155.94 2119.58,1155.94 2119.58,1302.37 2114.7,1302.37 2114.7,1346.3 2104.94,1346.3 2104.94,1585.46 2119.58,1585.46 2119.58,1634.27 2134.22,1634.27 2134.22,1668.44 2163.51,1668.44 2163.51,1683.08 2183.03,1683.08 2183.03,1697.72 2309.94,1697.72 2309.94,1683.08 2339.22,1683.08 2339.22,1668.44 2358.74,1668.44 2358.74,1653.79 2373.39,1653.79 2373.39,1634.27 2388.03,1634.27 2388.03,1604.99 2402.67,1604.99 2402.67,1556.18 2417.32,1556.18 2417.32,1204.75 2407.55,1204.75 2407.55,1155.94 2402.67,1155.94 2402.67,965.59 2388.03,965.59 2388.03,950.95 2402.67,950.95 2402.67,936.31 2388.03,936.31 2388.03,809.4 2402.67,809.4 2402.67,633.69 2417.32,633.69 2417.32,570.24 2436.84,570.24 2436.84,599.53 2422.2,599.53 2422.2,682.5 2417.32,682.5 2417.32,697.14 2407.55,697.14 2407.55,1107.14 2417.32,1107.14 2417.32,1155.94 2422.2,1155.94 2422.2,1365.82 2436.84,1365.82 2436.84,1478.08 2451.48,1478.08 2451.48,1365.82 2466.12,1365.82 2466.12,760.59 2485.65,760.59 2485.65,677.62 2500.29,677.62 2500.29,614.17 2514.93,614.17 2514.93,550.72 2529.57,550.72 2529.57,521.43 2549.1,521.43 2549.1,472.62 2563.74,472.62 2563.74,457.98 2578.38,457.98 2578.38,423.81 2593.03,423.81 2593.03,409.17 2597.91,409.17 2597.91,394.53 2612.55,394.53 2612.55,375.01 2627.19,375.01 2627.19,360.36 2641.83,360.36 2641.83,345.72 2661.36,345.72 2661.36,331.08 2676,331.08 2676,311.55 2690.64,311.55 2690.64,296.91 2719.93,296.91 2719.93,282.27 2739.45,282.27 2739.45,267.63 2768.74,267.63 2768.74,248.1 2817.55,248.1 2817.55,233.46 2866.36,233.46 2866.36,218.82 3027.42,218.82 3027.42,233.46 3090.88,233.46 3090.88,248.1 3105.52,248.1 3105.52,252.98 3120.16,252.98 3120.16,267.63 3154.33,267.63 3154.33,282.27 3183.61,282.27 3183.61,296.91 3217.78,296.91 3217.78,316.44 3232.42,316.44 3232.42,326.2 3247.06,326.2 3247.06,345.72 3266.59,345.72 3266.59,360.36 3281.23,360.36 3281.23,375.01 3295.87,375.01 3295.87,394.53 3310.51,394.53 3310.51,409.17 3330.04,409.17 3330.04,423.81 3344.68,423.81 3344.68,457.98 3359.32,457.98 3359.32,472.62 3373.97,472.62 3373.97,501.91 3378.85,501.91 3378.85,506.79 3388.61,506.79 3388.61,536.07 3408.13,536.07 3408.13,584.88 3422.78,584.88 3422.78,633.69 3437.42,633.69 3437.42,697.14 3422.78,697.14 3422.78,711.79 3393.49,711.79 3393.49,726.43 3359.32,726.43 3359.32,741.07 3344.68,741.07 3344.68,760.59 3315.4,760.59 3315.4,775.24 3295.87,775.24 3295.87,789.88 3266.59,789.88 3266.59,809.4 3247.06,809.4 3247.06,824.05 3217.78,824.05 3217.78,838.69 3198.25,838.69 3198.25,853.33 3183.61,853.33 3183.61,872.85 3154.33,872.85 3154.33,887.5 3134.8,887.5 3134.8,902.14 3120.16,902.14 3120.16,916.78 3105.52,916.78 3105.52,936.31 3090.88,936.31 3090.88,950.95 3056.71,950.95 3056.71,965.59 3042.07,965.59 3042.07,985.11 3027.42,985.11 3027.42,999.76 3007.9,999.76 3007.9,1014.4 2993.26,1014.4 2993.26,1029.04 2978.62,1029.04 2978.62,1043.68 2963.97,1043.68 2963.97,1063.21 2949.33,1063.21 2949.33,1077.85 2929.81,1077.85 2929.81,1097.37 2915.16,1097.37 2915.16,1112.02 2900.52,1112.02 2900.52,1126.66 2881,1126.66 2881,1141.3 2866.36,1141.3 2866.36,1175.47 2851.71,1175.47 2851.71,1190.11 2832.19,1190.11 2832.19,1204.75 2817.55,1204.75 2817.55,1224.28 2802.9,1224.28 2802.9,1238.92 2788.26,1238.92 2788.26,1268.2 2773.62,1268.2 2773.62,1282.85 2754.09,1282.85 2754.09,1302.37 2739.45,1302.37 2739.45,1331.66 2724.81,1331.66 2724.81,1346.3 2719.93,1346.3 2719.93,1351.18 2710.17,1351.18 2710.17,1365.82 2705.29,1365.82 2705.29,1380.46 2690.64,1380.46 2690.64,1395.11 2676,1395.11 2676,1429.27 2656.48,1429.27 2656.48,1443.92 2641.83,1443.92 2641.83,1458.56 2627.19,1458.56 2627.19,1507.37 2612.55,1507.37 2612.55,1541.53 2597.91,1541.53 2597.91,1556.18 2578.38,1556.18 2578.38,1604.99 2563.74,1604.99 2563.74,1634.27 2549.1,1634.27 2549.1,1668.44 2529.57,1668.44 2529.57,1717.25 2514.93,1717.25 2514.93,1951.53 2529.57,1951.53 2529.57,2000.34 2549.1,2000.34 2549.1,2014.98 2563.74,2014.98 2563.74,2049.14 2578.38,2049.14 2578.38,2063.79 2612.55,2063.79 2612.55,2083.31 2627.19,2083.31 2627.19,2097.95 2676,2097.95 2676,2112.6 2739.45,2112.6 2739.45,2127.24 2851.71,2127.24 2851.71,2141.88 3056.71,2141.88 3056.71,2132.12 3120.16,2132.12 3120.16,2127.24 3217.78,2127.24 3217.78,2112.6 3330.04,2112.6 3330.04,2097.95 3437.42,2097.95 3437.42,2083.31 3613.13,2083.31 3613.13,2097.95 3696.1,2097.95 3696.1,2112.6 3759.56,2112.6 3759.56,2127.24 3788.84,2127.24 3788.84,2141.88 3823.01,2141.88 3823.01,2161.4 3852.29,2161.4 3852.29,2176.05 3886.46,2176.05 3886.46,2190.69 3901.1,2190.69 3901.1,2210.21 3915.74,2210.21 3915.74,2224.86 3949.91,2224.86 3949.91,2254.14 3964.55,2254.14 3964.55,2268.78 3979.2,2268.78 3979.2,2273.66 3984.08,2273.66 3984.08,2288.31 3993.84,2288.31 3993.84,2302.95 4013.36,2302.95 4013.36,2337.12 4028,2337.12 4028,2381.04 4042.65,2381.04 4042.65,2415.21 4047.53,2415.21 4047.53,2429.85 4057.29,2429.85 4057.29,2625.09 4047.53,2625.09 4047.53,2654.37 4042.65,2654.37 4042.65,2683.66 4028,2683.66 4028,2717.82 4013.36,2717.82 4013.36,2766.63 3998.72,2766.63 3998.72,2795.92 3979.2,2795.92 3979.2,2815.44 3964.55,2815.44 3964.55,2830.08 3949.91,2830.08 3949.91,2844.73 3935.27,2844.73 3935.27,2859.37 3930.39,2859.37 3930.39,2864.25 3920.62,2864.25 3920.62,2874.01 3915.74,2874.01 3915.74,2878.89 3901.1,2878.89 3901.1,2893.54 3886.46,2893.54 3886.46,2908.18 3871.82,2908.18 3871.82,2922.82 "/>
   </g>
   <rect class="fil0" x="2982.77" y="1085.97" width="253.81" height="286.71"/>
  </g>
 </g>
</svg>
