<svg width="48" height="44" viewBox="0 0 48 44" fill="none" xmlns="http://www.w3.org/2000/svg">
<g filter="url(#filter0_i)">
<path fill-rule="evenodd" clip-rule="evenodd" d="M1.00002 4.58518C1.00002 4.58518 0.942947 35.4118 7.03114 40.9061C13.1192 46.4005 15.493 39.1322 20.9716 40.9655C21.1005 39.1812 20.9 36.9969 16.6188 34.6409C13.7814 33.0796 11.6786 31.3053 10.3165 29.3357C8.94391 27.366 8.26312 25.129 8.26312 22.6351C8.26312 19.2501 9.57427 16.4787 12.1968 14.3109C14.8094 12.1435 18.1942 11.0645 22.3416 11.0645C23.8764 11.0645 25.5335 11.2427 27.3122 11.5892C29.1012 11.9355 31.0836 12.48 33.2689 13.2124V23.0605C31.1853 21.7936 29.2132 20.814 27.3428 20.1211C25.4725 19.4283 23.8867 19.0816 22.5753 19.0816C21.1218 19.0816 19.9833 19.3887 19.1498 19.9923C18.3162 20.5962 17.8996 21.4276 17.8996 22.4667C17.8996 23.1991 18.1435 23.8822 18.6416 24.5157C19.1397 25.1589 19.8817 25.7329 20.8778 26.2575L25.94 28.9795C31.2062 31.8111 32.1028 37.142 32.3495 39.3606C32.4193 38.8288 31.7399 32.5748 28.9823 29.2983C26.2247 26.0216 43.8582 30.2073 46.8647 13.1757C49.8712 -3.8557 1.77828 0.795311 1.00002 4.58518V4.58518Z" fill="#29B573"/>
</g>
<path fill-rule="evenodd" clip-rule="evenodd" d="M1.00002 4.58518C1.00002 4.58518 0.942947 35.4118 7.03114 40.9061C13.1192 46.4005 15.493 39.1322 20.9716 40.9655C21.1005 39.1812 20.9 36.9969 16.6188 34.6409C13.7814 33.0796 11.6786 31.3053 10.3165 29.3357C8.94391 27.366 8.26312 25.129 8.26312 22.6351C8.26312 19.2501 9.57427 16.4787 12.1968 14.3109C14.8094 12.1435 18.1942 11.0645 22.3416 11.0645C23.8764 11.0645 25.5335 11.2427 27.3122 11.5892C29.1012 11.9355 31.0836 12.48 33.2689 13.2124V23.0605C31.1853 21.7936 29.2132 20.814 27.3428 20.1211C25.4725 19.4283 23.8867 19.0816 22.5753 19.0816C21.1218 19.0816 19.9833 19.3887 19.1498 19.9923C18.3162 20.5962 17.8996 21.4276 17.8996 22.4667C17.8996 23.1991 18.1435 23.8822 18.6416 24.5157C19.1397 25.1589 19.8817 25.7329 20.8778 26.2575L25.94 28.9795C31.2062 31.8111 32.1028 37.142 32.3495 39.3606C32.4193 38.8288 31.7399 32.5748 28.9823 29.2983C26.2247 26.0216 43.8582 30.2073 46.8647 13.1757C49.8712 -3.8557 1.77828 0.795311 1.00002 4.58518V4.58518Z" stroke="#48887B" stroke-width="0.2" stroke-miterlimit="22.9256"/>
<defs>
<filter id="filter0_i" x="0.900024" y="0.899902" width="46.2" height="46.2" filterUnits="userSpaceOnUse" color-interpolation-filters="sRGB">
<feFlood flood-opacity="0" result="BackgroundImageFix"/>
<feBlend mode="normal" in="SourceGraphic" in2="BackgroundImageFix" result="shape"/>
<feColorMatrix in="SourceAlpha" type="matrix" values="0 0 0 0 0 0 0 0 0 0 0 0 0 0 0 0 0 0 127 0" result="hardAlpha"/>
<feOffset dy="4"/>
<feGaussianBlur stdDeviation="2"/>
<feComposite in2="hardAlpha" operator="arithmetic" k2="-1" k3="1"/>
<feColorMatrix type="matrix" values="0 0 0 0 0 0 0 0 0 0 0 0 0 0 0 0 0 0 0.25 0"/>
<feBlend mode="normal" in2="shape" result="effect1_innerShadow"/>
</filter>
</defs>
</svg>
