<svg width="339" height="190" viewBox="0 0 339 190" fill="none" xmlns="http://www.w3.org/2000/svg">
<path fill-rule="evenodd" clip-rule="evenodd" d="M142.094 188.866C142.141 188.99 142.284 189.093 142.534 189.174C142.836 189.272 143.203 189.309 143.589 189.309C143.937 189.309 144.288 189.275 144.614 189.23C145.036 189.171 145.44 189.087 145.818 188.993L145.995 188.949L145.738 189.754L145.689 189.763C145.309 189.834 144.913 189.893 144.503 189.931C144.116 189.967 143.721 189.984 143.323 189.984C142.426 189.984 141.584 189.892 140.919 189.646C140.278 189.409 140 189.105 140 188.761C140 188.388 140.326 188.066 141 187.803C141.672 187.541 142.488 187.413 143.433 187.413C144.193 187.413 144.89 187.496 145.453 187.701C146.002 187.901 146.247 188.156 146.247 188.449C146.247 188.522 146.233 188.597 146.22 188.67L146.22 188.672L146.209 188.697L145.988 188.824L142.094 188.866ZM151.106 189.609C150.863 189.714 150.584 189.809 150.266 189.876C149.901 189.953 149.507 189.99 149.093 189.99C148.54 189.99 148.002 189.935 147.62 189.769C147.225 189.597 147.116 189.358 147.116 189.133V187.517H149.33V188.91C149.33 188.992 149.36 189.091 149.495 189.158C149.614 189.217 149.786 189.236 149.971 189.236C150.264 189.236 150.517 189.202 150.702 189.11C150.911 189.006 150.963 188.859 150.963 188.73V187.517H153.165V189.875L151.106 189.996V189.609ZM161.676 187.355C161.328 187.214 160.929 187.084 160.478 186.998C160.08 186.922 159.659 186.883 159.217 186.883C158.485 186.883 157.855 186.979 157.355 187.193C156.834 187.416 156.628 187.693 156.628 187.993C156.628 188.29 156.826 188.565 157.348 188.784C157.851 188.996 158.489 189.086 159.219 189.086C159.696 189.086 160.155 189.044 160.593 188.972C161.096 188.888 161.557 188.766 161.973 188.627L162.149 188.569L161.99 189.655L161.95 189.666C161.538 189.776 161.09 189.858 160.614 189.914C160.124 189.972 159.619 190 159.107 190C158.557 190 158.017 189.966 157.496 189.897C156.98 189.827 156.504 189.724 156.075 189.591C155.467 189.402 154.994 189.171 154.665 188.895C154.329 188.614 154.176 188.313 154.176 188.003C154.176 187.735 154.289 187.472 154.537 187.222C154.777 186.98 155.127 186.763 155.588 186.577C156.05 186.391 156.588 186.248 157.198 186.148C157.812 186.048 158.456 186 159.12 186C159.64 186 160.152 186.028 160.65 186.088C161.147 186.148 161.612 186.239 162.04 186.355L162.089 186.368L161.825 187.415L161.676 187.355ZM162.726 188.697C162.726 188.34 163.011 188.024 163.658 187.771C164.306 187.519 165.108 187.408 166.014 187.408C166.923 187.408 167.729 187.518 168.379 187.771C169.028 188.024 169.316 188.339 169.316 188.697C169.316 189.055 169.027 189.371 168.379 189.624C167.729 189.878 166.925 189.99 166.014 189.99C165.107 189.99 164.31 189.877 163.663 189.624C163.014 189.371 162.726 189.055 162.726 188.697ZM172.362 187.833C172.604 187.729 172.883 187.636 173.199 187.569C173.566 187.491 173.961 187.454 174.377 187.454C174.929 187.454 175.467 187.509 175.848 187.675C176.241 187.847 176.35 188.084 176.35 188.308V189.881H174.149V188.532C174.149 188.449 174.119 188.351 173.984 188.285C173.865 188.226 173.693 188.208 173.508 188.208C173.219 188.208 172.962 188.242 172.777 188.333C172.566 188.437 172.515 188.585 172.515 188.714V189.881H170.301V187.517H172.362V187.833ZM177.959 188.198H177.116V187.517H177.959V186.836L180.213 186.716V187.517H181.584V188.198H180.213V189.129C180.213 189.256 180.238 189.445 180.411 189.556C180.576 189.662 180.898 189.742 181.173 189.796L181.498 189.86L178.816 189.933L178.793 189.929C178.495 189.872 178.271 189.787 178.141 189.666C177.972 189.51 177.959 189.242 177.959 189.074V188.198ZM184.407 187.829C184.588 187.728 184.81 187.638 185.081 187.574C185.446 187.489 185.872 187.46 186.292 187.46H186.551V188.39H186.015C185.698 188.39 185.077 188.396 184.803 188.468C184.546 188.535 184.522 188.738 184.522 188.845V189.881H182.294V187.517H184.378L184.407 187.829ZM187.04 188.697C187.04 188.34 187.325 188.024 187.972 187.771C188.62 187.519 189.422 187.408 190.328 187.408C191.237 187.408 192.043 187.518 192.693 187.771C193.342 188.024 193.63 188.339 193.63 188.697C193.63 189.055 193.341 189.371 192.693 189.624C192.043 189.878 191.239 189.99 190.328 189.99C189.421 189.99 188.624 189.877 187.977 189.624C187.328 189.371 187.04 189.055 187.04 188.697ZM196.803 189.881H194.562V186.187L196.803 186.067V189.881ZM199.847 188.866C199.894 188.99 200.037 189.093 200.288 189.174C200.589 189.272 200.956 189.309 201.342 189.309C201.69 189.309 202.042 189.275 202.368 189.23C202.789 189.171 203.193 189.087 203.571 188.993L203.749 188.949L203.492 189.754L203.442 189.763C203.063 189.834 202.666 189.893 202.257 189.931C201.869 189.967 201.475 189.984 201.077 189.984C200.179 189.984 199.338 189.892 198.672 189.646C198.031 189.409 197.753 189.105 197.753 188.761C197.753 188.388 198.08 188.066 198.754 187.803C199.426 187.541 200.242 187.413 201.186 187.413C201.946 187.413 202.643 187.496 203.206 187.701C203.755 187.901 204 188.156 204 188.449C204 188.522 203.986 188.597 203.973 188.67L203.973 188.672L203.962 188.697L203.741 188.824L199.847 188.866ZM142.151 188.445L144.441 188.417C144.439 188.313 144.35 188.224 144.152 188.153C143.944 188.078 143.689 188.047 143.409 188.047C143.093 188.047 142.802 188.08 142.563 188.163C142.345 188.238 142.219 188.337 142.151 188.445ZM164.98 188.699C164.98 188.854 165.049 189.017 165.281 189.146C165.461 189.247 165.696 189.309 166.014 189.309C166.334 189.309 166.567 189.247 166.748 189.146C166.978 189.015 167.048 188.854 167.048 188.699C167.048 188.543 166.977 188.383 166.748 188.253C166.568 188.151 166.334 188.088 166.014 188.088C165.696 188.088 165.461 188.15 165.281 188.252C165.051 188.382 164.98 188.543 164.98 188.699ZM189.294 188.699C189.294 188.854 189.363 189.017 189.595 189.146C189.775 189.247 190.01 189.309 190.328 189.309C190.648 189.309 190.881 189.247 191.062 189.146C191.292 189.015 191.362 188.854 191.362 188.699C191.362 188.543 191.291 188.383 191.062 188.253C190.882 188.151 190.648 188.088 190.328 188.088C190.01 188.088 189.775 188.15 189.595 188.252C189.365 188.382 189.294 188.543 189.294 188.699ZM199.904 188.445L202.194 188.417C202.193 188.313 202.103 188.224 201.906 188.153C201.697 188.078 201.443 188.047 201.162 188.047C200.846 188.047 200.556 188.08 200.316 188.163C200.098 188.238 199.972 188.337 199.904 188.445Z" fill="#48887B"/>
<path d="M110.273 120.469C106.555 120.469 103.523 119.328 101.18 117.047C98.8516 114.766 97.6875 111.727 97.6875 107.93V107.273C97.6875 104.727 98.1797 102.453 99.1641 100.453C100.148 98.4375 101.539 96.8906 103.336 95.8125C105.148 94.7188 107.211 94.1719 109.523 94.1719C112.992 94.1719 115.719 95.2656 117.703 97.4531C119.703 99.6406 120.703 102.742 120.703 106.758V109.523H104.555C104.773 111.18 105.43 112.508 106.523 113.508C107.633 114.508 109.031 115.008 110.719 115.008C113.328 115.008 115.367 114.062 116.836 112.172L120.164 115.898C119.148 117.336 117.773 118.461 116.039 119.273C114.305 120.07 112.383 120.469 110.273 120.469ZM109.5 99.6562C108.156 99.6562 107.062 100.109 106.219 101.016C105.391 101.922 104.859 103.219 104.625 104.906H114.047V104.367C114.016 102.867 113.609 101.711 112.828 100.898C112.047 100.07 110.938 99.6562 109.5 99.6562ZM139.758 117.422C138.086 119.453 135.773 120.469 132.82 120.469C130.102 120.469 128.023 119.688 126.586 118.125C125.164 116.562 124.438 114.273 124.406 111.258V94.6406H131.18V111.023C131.18 113.664 132.383 114.984 134.789 114.984C137.086 114.984 138.664 114.188 139.523 112.594V94.6406H146.32V120H139.945L139.758 117.422ZM178.664 108.633C178.398 112.305 177.039 115.195 174.586 117.305C172.148 119.414 168.93 120.469 164.93 120.469C160.555 120.469 157.109 119 154.594 116.062C152.094 113.109 150.844 109.062 150.844 103.922V101.836C150.844 98.5547 151.422 95.6641 152.578 93.1641C153.734 90.6641 155.383 88.75 157.523 87.4219C159.68 86.0781 162.18 85.4062 165.023 85.4062C168.961 85.4062 172.133 86.4609 174.539 88.5703C176.945 90.6797 178.336 93.6406 178.711 97.4531H171.68C171.508 95.25 170.891 93.6562 169.828 92.6719C168.781 91.6719 167.18 91.1719 165.023 91.1719C162.68 91.1719 160.922 92.0156 159.75 93.7031C158.594 95.375 158 97.9766 157.969 101.508V104.086C157.969 107.773 158.523 110.469 159.633 112.172C160.758 113.875 162.523 114.727 164.93 114.727C167.102 114.727 168.719 114.234 169.781 113.25C170.859 112.25 171.477 110.711 171.633 108.633H178.664ZM181.781 107.086C181.781 104.57 182.266 102.328 183.234 100.359C184.203 98.3906 185.594 96.8672 187.406 95.7891C189.234 94.7109 191.352 94.1719 193.758 94.1719C197.18 94.1719 199.969 95.2188 202.125 97.3125C204.297 99.4062 205.508 102.25 205.758 105.844L205.805 107.578C205.805 111.469 204.719 114.594 202.547 116.953C200.375 119.297 197.461 120.469 193.805 120.469C190.148 120.469 187.227 119.297 185.039 116.953C182.867 114.609 181.781 111.422 181.781 107.391V107.086ZM188.555 107.578C188.555 109.984 189.008 111.828 189.914 113.109C190.82 114.375 192.117 115.008 193.805 115.008C195.445 115.008 196.727 114.383 197.648 113.133C198.57 111.867 199.031 109.852 199.031 107.086C199.031 104.727 198.57 102.898 197.648 101.602C196.727 100.305 195.43 99.6562 193.758 99.6562C192.102 99.6562 190.82 100.305 189.914 101.602C189.008 102.883 188.555 104.875 188.555 107.578ZM216.211 94.6406L216.422 97.5703C218.234 95.3047 220.664 94.1719 223.711 94.1719C226.398 94.1719 228.398 94.9609 229.711 96.5391C231.023 98.1172 231.695 100.477 231.727 103.617V120H224.953V103.781C224.953 102.344 224.641 101.305 224.016 100.664C223.391 100.008 222.352 99.6797 220.898 99.6797C218.992 99.6797 217.562 100.492 216.609 102.117V120H209.836V94.6406H216.211ZM244.992 88.4062V94.6406H249.328V99.6094H244.992V112.266C244.992 113.203 245.172 113.875 245.531 114.281C245.891 114.688 246.578 114.891 247.594 114.891C248.344 114.891 249.008 114.836 249.586 114.727V119.859C248.258 120.266 246.891 120.469 245.484 120.469C240.734 120.469 238.312 118.07 238.219 113.273V99.6094H234.516V94.6406H238.219V88.4062H244.992ZM267.352 100.992C266.43 100.867 265.617 100.805 264.914 100.805C262.352 100.805 260.672 101.672 259.875 103.406V120H253.102V94.6406H259.5L259.688 97.6641C261.047 95.3359 262.93 94.1719 265.336 94.1719C266.086 94.1719 266.789 94.2734 267.445 94.4766L267.352 100.992ZM268.734 107.086C268.734 104.57 269.219 102.328 270.188 100.359C271.156 98.3906 272.547 96.8672 274.359 95.7891C276.188 94.7109 278.305 94.1719 280.711 94.1719C284.133 94.1719 286.922 95.2188 289.078 97.3125C291.25 99.4062 292.461 102.25 292.711 105.844L292.758 107.578C292.758 111.469 291.672 114.594 289.5 116.953C287.328 119.297 284.414 120.469 280.758 120.469C277.102 120.469 274.18 119.297 271.992 116.953C269.82 114.609 268.734 111.422 268.734 107.391V107.086ZM275.508 107.578C275.508 109.984 275.961 111.828 276.867 113.109C277.773 114.375 279.07 115.008 280.758 115.008C282.398 115.008 283.68 114.383 284.602 113.133C285.523 111.867 285.984 109.852 285.984 107.086C285.984 104.727 285.523 102.898 284.602 101.602C283.68 100.305 282.383 99.6562 280.711 99.6562C279.055 99.6562 277.773 100.305 276.867 101.602C275.961 102.883 275.508 104.875 275.508 107.578ZM304.078 120H297.281V84H304.078V120ZM321.352 120.469C317.633 120.469 314.602 119.328 312.258 117.047C309.93 114.766 308.766 111.727 308.766 107.93V107.273C308.766 104.727 309.258 102.453 310.242 100.453C311.227 98.4375 312.617 96.8906 314.414 95.8125C316.227 94.7188 318.289 94.1719 320.602 94.1719C324.07 94.1719 326.797 95.2656 328.781 97.4531C330.781 99.6406 331.781 102.742 331.781 106.758V109.523H315.633C315.852 111.18 316.508 112.508 317.602 113.508C318.711 114.508 320.109 115.008 321.797 115.008C324.406 115.008 326.445 114.062 327.914 112.172L331.242 115.898C330.227 117.336 328.852 118.461 327.117 119.273C325.383 120.07 323.461 120.469 321.352 120.469ZM320.578 99.6562C319.234 99.6562 318.141 100.109 317.297 101.016C316.469 101.922 315.938 103.219 315.703 104.906H325.125V104.367C325.094 102.867 324.688 101.711 323.906 100.898C323.125 100.07 322.016 99.6562 320.578 99.6562Z" fill="#29B573"/>
<path d="M101.18 117.047L101.173 117.054L101.173 117.054L101.18 117.047ZM99.1641 100.453L99.173 100.458L99.173 100.458L99.1641 100.453ZM103.336 95.8125L103.341 95.8211L103.341 95.8211L103.336 95.8125ZM117.703 97.4531L117.696 97.4598L117.696 97.4599L117.703 97.4531ZM104.555 109.523V109.513H104.543L104.545 109.525L104.555 109.523ZM106.523 113.508L106.517 113.515L106.517 113.515L106.523 113.508ZM116.836 112.172L116.843 112.165L116.835 112.156L116.828 112.166L116.836 112.172ZM120.164 115.898L120.2 115.924L120.172 115.892L120.164 115.898ZM116.039 119.273L116.043 119.283L116.043 119.282L116.039 119.273ZM106.219 101.016L106.211 101.009L106.211 101.009L106.219 101.016ZM104.625 104.906L104.615 104.905L104.614 104.916H104.625V104.906ZM114.047 104.367H114.057L114.057 104.367L114.047 104.367ZM112.828 100.898L112.821 100.905L112.821 100.905L112.828 100.898ZM110.273 120.459C106.557 120.459 103.528 119.319 101.187 117.04L101.173 117.054C103.519 119.337 106.552 120.479 110.273 120.479V120.459ZM101.187 117.04C98.8608 114.761 97.6975 111.724 97.6975 107.93H97.6775C97.6775 111.729 98.8423 114.771 101.173 117.054L101.187 117.04ZM97.6975 107.93V107.273H97.6775V107.93H97.6975ZM97.6975 107.273C97.6975 104.728 98.1894 102.456 99.173 100.458L99.1551 100.449C98.1699 102.45 97.6775 104.725 97.6775 107.273H97.6975ZM99.173 100.458C100.157 98.4435 101.546 96.8981 103.341 95.8211L103.331 95.8039C101.532 96.8831 100.14 98.4315 99.1551 100.449L99.173 100.458ZM103.341 95.8211C105.152 94.7283 107.213 94.1819 109.523 94.1819V94.1619C107.209 94.1619 105.145 94.7092 103.331 95.8039L103.341 95.8211ZM109.523 94.1819C112.99 94.1819 115.714 95.2748 117.696 97.4598L117.711 97.4464C115.724 95.2564 112.994 94.1619 109.523 94.1619V94.1819ZM117.696 97.4599C119.694 99.645 120.693 102.744 120.693 106.758H120.713C120.713 102.741 119.713 99.6363 117.711 97.4464L117.696 97.4599ZM120.693 106.758V109.523H120.713V106.758H120.693ZM120.703 109.513H104.555V109.533H120.703V109.513ZM104.545 109.525C104.764 111.183 105.421 112.513 106.517 113.515L106.53 113.5C105.438 112.502 104.783 111.176 104.565 109.522L104.545 109.525ZM106.517 113.515C107.628 114.517 109.029 115.018 110.719 115.018V114.998C109.033 114.998 107.637 114.499 106.53 113.5L106.517 113.515ZM110.719 115.018C113.331 115.018 115.373 114.071 116.844 112.178L116.828 112.166C115.361 114.054 113.325 114.998 110.719 114.998V115.018ZM116.828 112.179L120.157 115.905L120.172 115.892L116.843 112.165L116.828 112.179ZM120.156 115.893C119.141 117.329 117.768 118.453 116.035 119.264L116.043 119.282C117.779 118.469 119.156 117.343 120.172 115.904L120.156 115.893ZM116.035 119.264C114.302 120.061 112.382 120.459 110.273 120.459V120.479C112.384 120.479 114.307 120.08 116.043 119.283L116.035 119.264ZM109.5 99.6462C108.154 99.6462 107.057 100.1 106.211 101.009L106.226 101.022C107.068 100.118 108.159 99.6663 109.5 99.6663V99.6462ZM106.211 101.009C105.381 101.917 104.85 103.216 104.615 104.905L104.635 104.908C104.869 103.221 105.4 101.927 106.226 101.022L106.211 101.009ZM104.625 104.916H114.047V104.896H104.625V104.916ZM114.057 104.906V104.367H114.037V104.906H114.057ZM114.057 104.367C114.026 102.865 113.619 101.706 112.835 100.892L112.821 100.905C113.6 101.716 114.006 102.869 114.037 104.367L114.057 104.367ZM112.835 100.892C112.052 100.061 110.939 99.6462 109.5 99.6462V99.6663C110.936 99.6663 112.042 100.08 112.821 100.905L112.835 100.892ZM139.758 117.422L139.768 117.421L139.766 117.396L139.75 117.416L139.758 117.422ZM126.586 118.125L126.579 118.132L126.579 118.132L126.586 118.125ZM124.406 111.258H124.396V111.258L124.406 111.258ZM139.523 112.594L139.533 112.599V112.594H139.523ZM139.945 120L139.808 120.01H139.945V120ZM139.75 117.416C138.08 119.444 135.771 120.459 132.82 120.459V120.479C135.776 120.479 138.092 119.462 139.766 117.428L139.75 117.416ZM132.82 120.459C130.104 120.459 128.028 119.678 126.593 118.118L126.579 118.132C128.018 119.697 130.1 120.479 132.82 120.479V120.459ZM126.593 118.118C125.174 116.558 124.447 114.272 124.416 111.258L124.396 111.258C124.428 114.275 125.154 116.567 126.579 118.132L126.593 118.118ZM124.416 111.258V94.6406H124.396V111.258H124.416ZM124.406 94.6506H131.18V94.6306H124.406V94.6506ZM131.17 94.6406V111.023H131.19V94.6406H131.17ZM131.17 111.023C131.17 112.345 131.471 113.338 132.075 114.001C132.679 114.664 133.584 114.994 134.789 114.994V114.974C133.588 114.974 132.688 114.645 132.089 113.987C131.49 113.33 131.19 112.342 131.19 111.023H131.17ZM134.789 114.994C137.088 114.994 138.671 114.196 139.532 112.598L139.515 112.589C138.657 114.179 137.083 114.974 134.789 114.974V114.994ZM139.533 112.594V94.6406H139.513V112.594H139.533ZM139.523 94.6506H146.32V94.6306H139.523V94.6506ZM146.31 94.6406V120H146.33V94.6406H146.31ZM146.32 119.99H139.945V120.01H146.32V119.99ZM139.955 119.999L139.768 117.421L139.748 117.423L139.935 120.001L139.955 119.999ZM178.664 108.633L178.674 108.634L178.675 108.623H178.664V108.633ZM174.586 117.305L174.579 117.297L174.579 117.297L174.586 117.305ZM154.594 116.062L154.586 116.069L154.586 116.069L154.594 116.062ZM157.523 87.4219L157.529 87.4304L157.529 87.4304L157.523 87.4219ZM178.711 97.4531V97.4631H178.722L178.721 97.4521L178.711 97.4531ZM171.68 97.4531L171.552 97.4631H171.68V97.4531ZM169.828 92.6719L169.821 92.6791L169.821 92.6792L169.828 92.6719ZM159.75 93.7031L159.742 93.6974L159.742 93.6974L159.75 93.7031ZM157.969 101.508L157.959 101.508V101.508H157.969ZM159.633 112.172L159.624 112.177L159.624 112.177L159.633 112.172ZM169.781 113.25L169.788 113.257V113.257L169.781 113.25ZM171.633 108.633V108.499L171.623 108.632L171.633 108.633ZM178.654 108.632C178.389 112.302 177.03 115.19 174.579 117.297L174.592 117.312C177.048 115.201 178.408 112.308 178.674 108.634L178.654 108.632ZM174.579 117.297C172.144 119.405 168.928 120.459 164.93 120.459V120.479C168.931 120.479 172.153 119.424 174.592 117.312L174.579 117.297ZM164.93 120.459C160.557 120.459 157.115 118.991 154.601 116.056L154.586 116.069C157.104 119.009 160.552 120.479 164.93 120.479V120.459ZM154.601 116.056C152.103 113.105 150.854 109.061 150.854 103.922H150.834C150.834 109.064 152.084 113.114 154.586 116.069L154.601 116.056ZM150.854 103.922V101.836H150.834V103.922H150.854ZM150.854 101.836C150.854 98.5559 151.432 95.6667 152.587 93.1683L152.569 93.1599C151.412 95.6614 150.834 98.5535 150.834 101.836H150.854ZM152.587 93.1683C153.743 90.6699 155.39 88.7574 157.529 87.4304L157.518 87.4134C155.376 88.7426 153.726 90.6583 152.569 93.1599L152.587 93.1683ZM157.529 87.4304C159.683 86.0877 162.181 85.4163 165.023 85.4163V85.3962C162.178 85.3962 159.676 86.0685 157.518 87.4134L157.529 87.4304ZM165.023 85.4163C168.959 85.4163 172.128 86.4704 174.532 88.5778L174.546 88.5628C172.137 86.4515 168.963 85.3962 165.023 85.3962V85.4163ZM174.532 88.5778C176.936 90.6852 178.326 93.6436 178.701 97.4541L178.721 97.4521C178.346 93.6376 176.954 90.6742 174.546 88.5628L174.532 88.5778ZM178.711 97.4431H171.68V97.4631H178.711V97.4431ZM171.69 97.4523C171.518 95.248 170.9 93.6513 169.835 92.6645L169.821 92.6792C170.881 93.6612 171.498 95.252 171.67 97.4539L171.69 97.4523ZM169.835 92.6646C168.786 91.6622 167.181 91.1619 165.023 91.1619V91.1819C167.178 91.1819 168.777 91.6816 169.821 92.6791L169.835 92.6646ZM165.023 91.1619C162.677 91.1619 160.916 92.0068 159.742 93.6974L159.758 93.7088C160.928 92.0244 162.682 91.1819 165.023 91.1819V91.1619ZM159.742 93.6974C158.584 95.3718 157.99 97.9758 157.959 101.508L157.979 101.508C158.01 97.9773 158.604 95.3782 159.758 93.7088L159.742 93.6974ZM157.959 101.508V104.086H157.979V101.508H157.959ZM157.959 104.086C157.959 107.774 158.513 110.472 159.624 112.177L159.641 112.166C158.533 110.466 157.979 107.773 157.979 104.086H157.959ZM159.624 112.177C160.752 113.884 162.521 114.737 164.93 114.737V114.717C162.526 114.717 160.764 113.866 159.641 112.166L159.624 112.177ZM164.93 114.737C167.103 114.737 168.723 114.244 169.788 113.257L169.774 113.243C168.715 114.225 167.1 114.717 164.93 114.717V114.737ZM169.788 113.257C170.869 112.255 171.486 110.713 171.643 108.634L171.623 108.632C171.467 110.709 170.85 112.245 169.774 113.243L169.788 113.257ZM171.633 108.643H178.664V108.623H171.633V108.643ZM187.406 95.7891L187.401 95.7804L187.401 95.7805L187.406 95.7891ZM202.125 97.3125L202.118 97.3197L202.118 97.3197L202.125 97.3125ZM205.758 105.844L205.768 105.843L205.768 105.843L205.758 105.844ZM205.805 107.578H205.815L205.815 107.578L205.805 107.578ZM202.547 116.953L202.554 116.96L202.554 116.96L202.547 116.953ZM185.039 116.953L185.032 116.96L185.032 116.96L185.039 116.953ZM189.914 113.109L189.906 113.115L189.906 113.115L189.914 113.109ZM197.648 113.133L197.656 113.139L197.657 113.139L197.648 113.133ZM189.914 101.602L189.922 101.607L189.922 101.607L189.914 101.602ZM181.791 107.086C181.791 104.572 182.275 102.331 183.243 100.364L183.225 100.355C182.256 102.325 181.771 104.569 181.771 107.086H181.791ZM183.243 100.364C184.211 98.3967 185.601 96.8748 187.411 95.7977L187.401 95.7805C185.587 96.8596 184.195 98.3845 183.225 100.355L183.243 100.364ZM187.411 95.7977C189.238 94.7206 191.353 94.1819 193.758 94.1819V94.1619C191.35 94.1619 189.231 94.7013 187.401 95.7804L187.411 95.7977ZM193.758 94.1819C197.177 94.1819 199.964 95.228 202.118 97.3197L202.132 97.3053C199.974 95.2095 197.182 94.1619 193.758 94.1619V94.1819ZM202.118 97.3197C204.288 99.4114 205.498 102.253 205.748 105.844L205.768 105.843C205.518 102.247 204.306 99.4011 202.132 97.3053L202.118 97.3197ZM205.748 105.844L205.795 107.578L205.815 107.578L205.768 105.843L205.748 105.844ZM205.795 107.578C205.795 111.467 204.709 114.589 202.54 116.946L202.554 116.96C204.728 114.598 205.815 111.471 205.815 107.578H205.795ZM202.54 116.946C200.37 119.288 197.459 120.459 193.805 120.459V120.479C197.463 120.479 200.38 119.306 202.554 116.96L202.54 116.946ZM193.805 120.459C190.151 120.459 187.232 119.288 185.046 116.946L185.032 116.96C187.221 119.306 190.146 120.479 193.805 120.479V120.459ZM185.046 116.946C182.877 114.605 181.791 111.42 181.791 107.391H181.771C181.771 111.424 182.858 114.614 185.032 116.96L185.046 116.946ZM181.791 107.391V107.086H181.771V107.391H181.791ZM188.545 107.578C188.545 109.985 188.998 111.832 189.906 113.115L189.922 113.104C189.018 111.825 188.565 109.983 188.565 107.578H188.545ZM189.906 113.115C190.814 114.384 192.114 115.018 193.805 115.018V114.998C192.12 114.998 190.826 114.366 189.922 113.104L189.906 113.115ZM193.805 115.018C195.448 115.018 196.733 114.391 197.656 113.139L197.64 113.127C196.721 114.374 195.442 114.998 193.805 114.998V115.018ZM197.657 113.139C198.58 111.87 199.041 109.852 199.041 107.086H199.021C199.021 109.851 198.56 111.864 197.64 113.127L197.657 113.139ZM199.041 107.086C199.041 104.725 198.58 102.895 197.657 101.596L197.64 101.607C198.561 102.902 199.021 104.728 199.021 107.086H199.041ZM197.657 101.596C196.733 100.296 195.433 99.6462 193.758 99.6462V99.6663C195.427 99.6663 196.72 100.313 197.64 101.607L197.657 101.596ZM193.758 99.6462C192.098 99.6462 190.814 100.296 189.906 101.596L189.922 101.607C190.827 100.313 192.105 99.6663 193.758 99.6663V99.6462ZM189.906 101.596C188.998 102.88 188.545 104.874 188.545 107.578H188.565C188.565 104.876 189.018 102.886 189.922 101.607L189.906 101.596ZM216.211 94.6406L216.35 94.6306H216.211V94.6406ZM216.422 97.5703L216.412 97.571L216.414 97.5965L216.43 97.5766L216.422 97.5703ZM231.727 103.617H231.737V103.617L231.727 103.617ZM224.016 100.664L224.008 100.671L224.008 100.671L224.016 100.664ZM216.609 102.117L216.599 102.111V102.117H216.609ZM216.201 94.6413L216.412 97.571L216.432 97.5696L216.221 94.6399L216.201 94.6413ZM216.43 97.5766C218.24 95.3134 220.667 94.1819 223.711 94.1819V94.1619C220.661 94.1619 218.229 95.2959 216.414 97.5641L216.43 97.5766ZM223.711 94.1819C226.396 94.1819 228.393 94.9703 229.703 96.5455L229.719 96.5327C228.404 94.9516 226.4 94.1619 223.711 94.1619V94.1819ZM229.703 96.5455C231.014 98.1211 231.685 100.478 231.717 103.617L231.737 103.617C231.705 100.475 231.033 98.1133 229.719 96.5327L229.703 96.5455ZM231.717 103.617V120H231.737V103.617H231.717ZM231.727 119.99H224.953V120.01H231.727V119.99ZM224.963 120V103.781H224.943V120H224.963ZM224.963 103.781C224.963 102.343 224.65 101.3 224.023 100.657L224.008 100.671C224.631 101.309 224.943 102.345 224.943 103.781H224.963ZM224.023 100.657C223.395 99.998 222.353 99.6697 220.898 99.6697V99.6897C222.35 99.6897 223.386 100.018 224.008 100.671L224.023 100.657ZM220.898 99.6697C218.989 99.6697 217.556 100.484 216.601 102.112L216.618 102.122C217.569 100.5 218.996 99.6897 220.898 99.6897V99.6697ZM216.599 102.117V120H216.619V102.117H216.599ZM216.609 119.99H209.836V120.01H216.609V119.99ZM209.846 120V94.6406H209.826V120H209.846ZM209.836 94.6506H216.211V94.6306H209.836V94.6506ZM249.586 114.727H249.596V114.714L249.584 114.717L249.586 114.727ZM249.586 119.859L249.596 119.892V119.859H249.586ZM238.219 113.273H238.209V113.274L238.219 113.273ZM244.982 88.4062V94.6406H245.002V88.4062H244.982ZM244.992 94.6506H249.328V94.6306H244.992V94.6506ZM249.318 94.6406V99.6094H249.338V94.6406H249.318ZM249.328 99.5994H244.992V99.6194H249.328V99.5994ZM244.982 99.6094V112.266H245.002V99.6094H244.982ZM244.982 112.266C244.982 113.204 245.162 113.879 245.524 114.288L245.539 114.275C245.182 113.871 245.002 113.202 245.002 112.266H244.982ZM245.524 114.288C245.886 114.698 246.578 114.901 247.594 114.901V114.881C246.579 114.881 245.895 114.677 245.539 114.275L245.524 114.288ZM247.594 114.901C248.344 114.901 249.009 114.846 249.588 114.736L249.584 114.717C249.007 114.826 248.343 114.881 247.594 114.881V114.901ZM249.576 114.727V119.859H249.596V114.727H249.576ZM249.583 119.85C248.256 120.256 246.89 120.459 245.484 120.459V120.479C246.892 120.479 248.26 120.275 249.589 119.869L249.583 119.85ZM245.484 120.459C243.111 120.459 241.321 119.86 240.113 118.663C238.904 117.466 238.276 115.67 238.229 113.273L238.209 113.274C238.256 115.674 238.885 117.475 240.098 118.677C241.312 119.879 243.108 120.479 245.484 120.479V120.459ZM238.229 113.273V99.6094H238.209V113.273H238.229ZM238.219 99.5994H234.516V99.6194H238.219V99.5994ZM234.526 99.6094V94.6406H234.506V99.6094H234.526ZM234.516 94.6506H238.219V94.6306H234.516V94.6506ZM238.229 94.6406V88.4062H238.209V94.6406H238.229ZM238.219 88.4163H244.992V88.3962H238.219V88.4163ZM267.352 100.992L267.35 101.002L267.361 101.004L267.362 100.992L267.352 100.992ZM259.875 103.406L259.865 103.402V103.406H259.875ZM259.5 94.6406L259.661 94.6306H259.5V94.6406ZM259.688 97.6641L259.678 97.6647L259.68 97.6975L259.696 97.6691L259.688 97.6641ZM267.445 94.4766L267.481 94.4771L267.448 94.467L267.445 94.4766ZM267.353 100.982C266.431 100.857 265.618 100.795 264.914 100.795V100.815C265.617 100.815 266.429 100.877 267.35 101.002L267.353 100.982ZM264.914 100.795C262.349 100.795 260.665 101.663 259.866 103.402L259.884 103.41C260.679 101.681 262.354 100.815 264.914 100.815V100.795ZM259.865 103.406V120H259.885V103.406H259.865ZM259.875 119.99H253.102V120.01H259.875V119.99ZM253.112 120V94.6406H253.092V120H253.112ZM253.102 94.6506H259.5V94.6306H253.102V94.6506ZM259.49 94.6412L259.678 97.6647L259.697 97.6634L259.51 94.64L259.49 94.6412ZM259.696 97.6691C261.054 95.3436 262.934 94.1819 265.336 94.1819V94.1619C262.926 94.1619 261.04 95.3283 259.679 97.659L259.696 97.6691ZM265.336 94.1819C266.085 94.1819 266.787 94.2833 267.442 94.4861L267.448 94.467C266.791 94.2636 266.087 94.1619 265.336 94.1619V94.1819ZM267.435 94.4764L267.342 100.992L267.362 100.992L267.455 94.4767L267.435 94.4764ZM274.359 95.7891L274.354 95.7804L274.354 95.7805L274.359 95.7891ZM289.078 97.3125L289.071 97.3197L289.071 97.3197L289.078 97.3125ZM292.711 105.844L292.721 105.843L292.721 105.843L292.711 105.844ZM292.758 107.578H292.768L292.768 107.578L292.758 107.578ZM289.5 116.953L289.507 116.96L289.507 116.96L289.5 116.953ZM271.992 116.953L271.985 116.96L271.985 116.96L271.992 116.953ZM276.867 113.109L276.859 113.115L276.859 113.115L276.867 113.109ZM284.602 113.133L284.61 113.139L284.61 113.139L284.602 113.133ZM276.867 101.602L276.875 101.607L276.875 101.607L276.867 101.602ZM268.744 107.086C268.744 104.572 269.228 102.331 270.196 100.364L270.179 100.355C269.209 102.325 268.724 104.569 268.724 107.086H268.744ZM270.196 100.364C271.164 98.3967 272.554 96.8748 274.364 95.7977L274.354 95.7805C272.54 96.8596 271.148 98.3845 270.179 100.355L270.196 100.364ZM274.364 95.7977C276.191 94.7206 278.306 94.1819 280.711 94.1819V94.1619C278.303 94.1619 276.184 94.7013 274.354 95.7804L274.364 95.7977ZM280.711 94.1819C284.131 94.1819 286.917 95.228 289.071 97.3197L289.085 97.3053C286.927 95.2095 284.135 94.1619 280.711 94.1619V94.1819ZM289.071 97.3197C291.241 99.4114 292.451 102.253 292.701 105.844L292.721 105.843C292.471 102.247 291.259 99.4011 289.085 97.3053L289.071 97.3197ZM292.701 105.844L292.748 107.578L292.768 107.578L292.721 105.843L292.701 105.844ZM292.748 107.578C292.748 111.467 291.662 114.589 289.493 116.946L289.507 116.96C291.681 114.598 292.768 111.471 292.768 107.578H292.748ZM289.493 116.946C287.323 119.288 284.412 120.459 280.758 120.459V120.479C284.416 120.479 287.333 119.306 289.507 116.96L289.493 116.946ZM280.758 120.459C277.104 120.459 274.185 119.288 271.999 116.946L271.985 116.96C274.175 119.306 277.099 120.479 280.758 120.479V120.459ZM272 116.946C269.83 114.605 268.744 111.42 268.744 107.391H268.724C268.724 111.424 269.811 114.614 271.985 116.96L272 116.946ZM268.744 107.391V107.086H268.724V107.391H268.744ZM275.498 107.578C275.498 109.985 275.951 111.832 276.859 113.115L276.875 113.104C275.971 111.825 275.518 109.983 275.518 107.578H275.498ZM276.859 113.115C277.767 114.384 279.067 115.018 280.758 115.018V114.998C279.073 114.998 277.78 114.366 276.875 113.104L276.859 113.115ZM280.758 115.018C282.401 115.018 283.686 114.391 284.61 113.139L284.594 113.127C283.674 114.374 282.395 114.998 280.758 114.998V115.018ZM284.61 113.139C285.533 111.87 285.994 109.852 285.994 107.086H285.974C285.974 109.851 285.513 111.864 284.593 113.127L284.61 113.139ZM285.994 107.086C285.994 104.725 285.533 102.895 284.61 101.596L284.593 101.607C285.514 102.902 285.974 104.728 285.974 107.086H285.994ZM284.61 101.596C283.686 100.296 282.386 99.6462 280.711 99.6462V99.6663C282.38 99.6663 283.674 100.313 284.593 101.607L284.61 101.596ZM280.711 99.6462C279.052 99.6462 277.767 100.296 276.859 101.596L276.875 101.607C277.78 100.313 279.058 99.6663 280.711 99.6663V99.6462ZM276.859 101.596C275.951 102.88 275.498 104.874 275.498 107.578H275.518C275.518 104.876 275.971 102.886 276.875 101.607L276.859 101.596ZM304.078 119.99H297.281V120.01H304.078V119.99ZM297.291 120V84H297.271V120H297.291ZM297.281 84.01H304.078V83.99H297.281V84.01ZM304.068 84V120H304.088V84H304.068ZM312.258 117.047L312.251 117.054L312.251 117.054L312.258 117.047ZM310.242 100.453L310.251 100.458L310.251 100.458L310.242 100.453ZM314.414 95.8125L314.419 95.8211L314.419 95.8211L314.414 95.8125ZM328.781 97.4531L328.774 97.4598L328.774 97.4599L328.781 97.4531ZM315.633 109.523V109.513H315.621L315.623 109.525L315.633 109.523ZM317.602 113.508L317.595 113.515L317.595 113.515L317.602 113.508ZM327.914 112.172L327.922 112.165L327.914 112.156L327.906 112.166L327.914 112.172ZM331.242 115.898L331.279 115.924L331.25 115.892L331.242 115.898ZM327.117 119.273L327.121 119.283L327.121 119.282L327.117 119.273ZM317.297 101.016L317.29 101.009L317.289 101.009L317.297 101.016ZM315.703 104.906L315.693 104.905L315.692 104.916H315.703V104.906ZM325.125 104.367H325.135L325.135 104.367L325.125 104.367ZM323.906 100.898L323.899 100.905L323.899 100.905L323.906 100.898ZM321.352 120.459C317.635 120.459 314.606 119.319 312.265 117.04L312.251 117.054C314.597 119.337 317.631 120.479 321.352 120.479V120.459ZM312.265 117.04C309.939 114.761 308.776 111.724 308.776 107.93H308.756C308.756 111.729 309.92 114.771 312.251 117.054L312.265 117.04ZM308.776 107.93V107.273H308.756V107.93H308.776ZM308.776 107.273C308.776 104.728 309.268 102.456 310.251 100.458L310.233 100.449C309.248 102.45 308.756 104.725 308.756 107.273H308.776ZM310.251 100.458C311.235 98.4435 312.624 96.8981 314.419 95.8211L314.409 95.8039C312.61 96.8831 311.218 98.4315 310.233 100.449L310.251 100.458ZM314.419 95.8211C316.23 94.7283 318.291 94.1819 320.602 94.1819V94.1619C318.287 94.1619 316.223 94.7092 314.409 95.8039L314.419 95.8211ZM320.602 94.1819C324.068 94.1819 326.792 95.2748 328.774 97.4598L328.789 97.4464C326.802 95.2564 324.073 94.1619 320.602 94.1619V94.1819ZM328.774 97.4599C330.772 99.645 331.771 102.744 331.771 106.758H331.791C331.791 102.741 330.791 99.6363 328.789 97.4464L328.774 97.4599ZM331.771 106.758V109.523H331.791V106.758H331.771ZM331.781 109.513H315.633V109.533H331.781V109.513ZM315.623 109.525C315.842 111.183 316.499 112.513 317.595 113.515L317.608 113.5C316.517 112.502 315.861 111.176 315.643 109.522L315.623 109.525ZM317.595 113.515C318.706 114.517 320.107 115.018 321.797 115.018V114.998C320.111 114.998 318.716 114.499 317.608 113.5L317.595 113.515ZM321.797 115.018C324.409 115.018 326.451 114.071 327.922 112.178L327.906 112.166C326.439 114.054 324.403 114.998 321.797 114.998V115.018ZM327.907 112.179L331.235 115.905L331.25 115.892L327.922 112.165L327.907 112.179ZM331.234 115.893C330.219 117.329 328.846 118.453 327.113 119.264L327.121 119.282C328.857 118.469 330.234 117.343 331.25 115.904L331.234 115.893ZM327.113 119.264C325.38 120.061 323.46 120.459 321.352 120.459V120.479C323.462 120.479 325.386 120.08 327.121 119.283L327.113 119.264ZM320.578 99.6462C319.232 99.6462 318.135 100.1 317.29 101.009L317.304 101.022C318.146 100.118 319.237 99.6663 320.578 99.6663V99.6462ZM317.289 101.009C316.46 101.917 315.928 103.216 315.693 104.905L315.713 104.908C315.947 103.221 316.478 101.927 317.304 101.022L317.289 101.009ZM315.703 104.916H325.125V104.896H315.703V104.916ZM325.135 104.906V104.367H325.115V104.906H325.135ZM325.135 104.367C325.104 102.865 324.697 101.706 323.913 100.892L323.899 100.905C324.678 101.716 325.084 102.869 325.115 104.367L325.135 104.367ZM323.914 100.892C323.13 100.061 322.018 99.6462 320.578 99.6462V99.6663C322.014 99.6663 323.12 100.08 323.899 100.905L323.914 100.892Z" fill="black"/>
<g filter="url(#filter0_i)">
<path fill-rule="evenodd" clip-rule="evenodd" d="M1.00006 11.0726C1.00006 11.0726 0.831322 97.6807 18.8312 113.117C36.8307 128.554 43.8489 108.133 60.0464 113.284C60.4276 108.271 59.8348 102.134 47.1775 95.515C38.7885 91.1283 32.5715 86.1433 28.5443 80.61C24.4863 75.0758 22.4736 68.7911 22.4736 61.7843C22.4736 52.274 26.35 44.4877 34.1037 38.3973C41.8277 32.308 51.835 29.2764 64.0968 29.2764C68.6345 29.2764 73.5338 29.777 78.7925 30.7505C84.0818 31.7236 89.9429 33.2533 96.4036 35.3111V62.9796C90.2435 59.4202 84.4128 56.6678 78.8831 54.7212C73.3534 52.7746 68.665 51.8008 64.7878 51.8008C60.4905 51.8008 57.1246 52.6634 54.6602 54.3593C52.1957 56.0559 50.9641 58.3919 50.9641 61.3112C50.9641 63.369 51.6851 65.2881 53.1576 67.0678C54.6305 68.8749 56.8241 70.4877 59.7691 71.9615L74.7358 79.6091C90.3052 87.5645 92.956 102.542 93.6855 108.775C93.8919 107.281 91.8831 89.7102 83.7303 80.5046C75.5774 71.2988 127.711 83.0587 136.6 35.2081C145.489 -12.6422 3.30099 0.424922 1.00006 11.0726Z" fill="#29B573"/>
</g>
<path fill-rule="evenodd" clip-rule="evenodd" d="M1.00006 11.0726C1.00006 11.0726 0.831322 97.6807 18.8312 113.117C36.8307 128.554 43.8489 108.133 60.0464 113.284C60.4276 108.271 59.8348 102.134 47.1775 95.515C38.7885 91.1283 32.5715 86.1433 28.5443 80.61C24.4863 75.0758 22.4736 68.7911 22.4736 61.7843C22.4736 52.274 26.35 44.4877 34.1037 38.3973C41.8277 32.308 51.835 29.2764 64.0968 29.2764C68.6345 29.2764 73.5338 29.777 78.7925 30.7505C84.0818 31.7236 89.9429 33.2533 96.4036 35.3111V62.9796C90.2435 59.4202 84.4128 56.6678 78.8831 54.7212C73.3534 52.7746 68.665 51.8008 64.7878 51.8008C60.4905 51.8008 57.1246 52.6634 54.6602 54.3593C52.1957 56.0559 50.9641 58.3919 50.9641 61.3112C50.9641 63.369 51.6851 65.2881 53.1576 67.0678C54.6305 68.8749 56.8241 70.4877 59.7691 71.9615L74.7358 79.6091C90.3052 87.5645 92.956 102.542 93.6855 108.775C93.8919 107.281 91.8831 89.7102 83.7303 80.5046C75.5774 71.2988 127.711 83.0587 136.6 35.2081C145.489 -12.6422 3.30099 0.424922 1.00006 11.0726Z" stroke="#48887B" stroke-width="0.2" stroke-miterlimit="22.9256"/>
<defs>
<filter id="filter0_i" x="0.900024" y="0.900002" width="136.2" height="122.2" filterUnits="userSpaceOnUse" color-interpolation-filters="sRGB">
<feFlood flood-opacity="0" result="BackgroundImageFix"/>
<feBlend mode="normal" in="SourceGraphic" in2="BackgroundImageFix" result="shape"/>
<feColorMatrix in="SourceAlpha" type="matrix" values="0 0 0 0 0 0 0 0 0 0 0 0 0 0 0 0 0 0 127 0" result="hardAlpha"/>
<feOffset dy="4"/>
<feGaussianBlur stdDeviation="2"/>
<feComposite in2="hardAlpha" operator="arithmetic" k2="-1" k3="1"/>
<feColorMatrix type="matrix" values="0 0 0 0 0 0 0 0 0 0 0 0 0 0 0 0 0 0 0.25 0"/>
<feBlend mode="normal" in2="shape" result="effect1_innerShadow"/>
</filter>
</defs>
</svg>
